<svg xmlns="http://www.w3.org/2000/svg" width="40" height="40" viewBox="0 0 40 40">
  <g id="avatar" transform="translate(-10 -10)">
    <path id="Path_1" data-name="Path 1" d="M30,10A20,20,0,1,0,50,30,20.112,20.112,0,0,0,30,10ZM42.053,43.7a12.326,12.326,0,0,0-9.041-11.506,7.773,7.773,0,0,0,4.931-7.4,7.947,7.947,0,0,0-15.894,0,8.187,8.187,0,0,0,4.931,7.4A12.01,12.01,0,0,0,17.939,43.7,18.057,18.057,0,0,1,11.645,30a18.355,18.355,0,0,1,36.71,0A18.037,18.037,0,0,1,42.053,43.7Z" fill="#fff"/>
  </g>
</svg>
