<svg xmlns="http://www.w3.org/2000/svg" width="290.708" height="95.076" viewBox="0 0 290.708 95.076">
  <g id="layer1" transform="translate(-279 -263.871)">
    <g id="g3013" transform="translate(119 276.362)">
      <path id="polygon2989" d="M153.975,100.62l-7.228,80.974L114.255,190.6l-32.4-8.995L74.633,100.62Z" transform="translate(294 -110.611)" fill="none" stroke="#fff" stroke-width="5"/>
      <path id="polygon2993" d="M150.31,268.217l.89,9.933h22.228v-9.933Z" transform="translate(234.876 -241.549)" fill="#fff"/>
      <path id="polygon2995" d="M167.039,176.3H142.132l.9,9.933h24Z" transform="translate(241.265 -169.741)" fill="#fff"/>
      <path id="polygon2997" d="M178.193,357.564V347.23l-.044.012-11.062-2.987-.707-7.922h-9.971l1.392,15.6,20.346,5.648Z" transform="translate(230.111 -294.766)" fill="#fff"/>
      <path id="path2999" d="M160,0h55V23H183V46h32V69H160Z" fill="#fff"/>
      <path id="path3001" d="M226,0h55V20H249v4h32V70H226V49h32V45H226Z" fill="#fff"/>
      <path id="path3003" d="M292,0h55V20H315v4h32V70H292V49h32V45H292Z" fill="#fff"/>
      <path id="polygon3005" d="M268.074,206.342l-1.153,12.882-11.078,2.99v10.334l20.363-5.644.149-1.678,2.334-26.15.242-2.667,1.793-20.1H255.843v9.933h14l-.9,10.171H255.843v9.933Z" transform="translate(152.426 -169.741)" fill="#fff"/>
    </g>
  </g>
</svg>
