<svg width="139" height="135" viewBox="0 0 139 135" fill="none" xmlns="http://www.w3.org/2000/svg">
<path d="M139 0H0V134.304H139V0Z" fill="#E87C2D"/>
<path d="M24.162 27.6089L25.5586 26.0611C28.7274 22.8646 28.9166 22.6735 31.112 20.8327C32.3475 19.8634 34.0094 18.5889 35.2857 17.6728C43.7154 11.8592 55.4614 7.72252 67.0383 7.11909C68.7744 7.02893 70.4457 7.02095 72.0447 7.08951L72.4908 7.11111C76.635 7.43466 76.8834 7.45391 79.3999 7.86903C83.8442 8.75563 84.109 8.80729 86.7514 9.59433C82.0719 8.18273 76.372 7.54642 69.9085 7.88312C51.8066 8.82701 33.3515 17.1074 24.162 27.6089Z" fill="white"/>
<path d="M11.0021 53.1515L11.9511 49.6564C12.5752 47.8494 13.4069 45.4366 14.1253 43.6653L14.4419 42.9327C21.552 26.8031 48.2301 12.6903 74.2959 11.3323C86.573 10.6927 96.5378 12.9956 102.962 17.2919L106.054 19.5206C107.666 20.8594 109.801 22.6659 111.332 24.0968C104.801 17.7798 92.6533 14.1959 77.0515 15.0092C48.6955 16.487 19.6689 31.9324 12.2183 49.5066C11.6933 50.7463 11.2895 51.9611 11.0021 53.1515Z" fill="white"/>
<path d="M10.7156 79.6771C10.3338 77.4888 9.84638 74.5637 9.60031 72.3561L9.40355 69.2347C9.29836 66.3223 9.90038 63.2112 11.2805 59.9555C19.2965 41.0468 50.5264 24.4293 81.0355 22.8388C101.041 21.7967 115.769 27.4751 121.277 36.8388C124.118 42.194 124.349 42.6317 125.774 46.4265C121.641 35.1947 105.745 28.1236 83.3797 29.2886C52.2686 30.9097 20.4217 47.8559 12.2474 67.1384C10.3413 71.6339 9.89099 75.8598 10.7156 79.6771Z" fill="white"/>
<path d="M21.9492 103.822C18.4912 98.9845 18.2089 98.5891 16.323 95.0939C13.7511 90.2749 13.5421 84.5379 16.2 78.2702C24.2686 59.2371 55.7046 42.5087 86.4147 40.9092C111.39 39.6075 128.193 48.7106 129.258 62.3932C129.322 64.0377 129.447 66.2289 129.436 67.8734C129.356 69.3723 129.301 71.3742 129.158 72.8684C130.644 57.941 113.837 47.6371 87.8756 48.9896C58.2569 50.5326 27.937 66.666 20.1554 85.023C17.1012 92.227 17.9723 98.7041 21.9492 103.822Z" fill="white"/>
<path d="M43.235 121.062L42.6377 120.769C38.1775 118.352 37.3745 117.917 33.6595 115.269C26.8997 110.28 24.5015 102.929 28.0878 94.4694C35.1261 77.8669 62.5462 63.2761 89.3337 61.8804C115.779 60.5026 131.72 72.4984 125.35 88.7793L124.678 90.4365C122.3 95.5269 122.157 95.8317 120.282 98.8826C121.028 97.6978 121.662 96.4966 122.177 95.2827C128.555 80.2364 114.045 69.0638 89.7662 70.3289C65.4891 71.5945 40.6368 84.8178 34.2578 99.865C30.3883 108.995 34.2085 116.699 43.235 121.062Z" fill="white"/>
<path d="M73.9362 126.768C89.8315 125.94 106.101 117.282 110.278 107.431C114.455 97.579 104.955 90.2655 89.0599 91.0939C73.1646 91.9223 56.8941 100.58 52.7175 110.431C48.5414 120.282 58.0413 127.597 73.9362 126.768C73.4746 126.889 73.0097 126.961 72.5429 126.985C68.6359 127.092 68.4828 127.097 66.3123 126.99C65.2717 126.908 63.8817 126.822 62.8443 126.711C48.455 125.151 40.6983 117.128 45.0514 106.86C50.1766 94.7713 70.1414 84.1472 89.6465 83.1305C109.151 82.1143 120.808 91.0906 115.683 103.179C114.061 107.005 110.951 110.685 106.841 113.96C105.555 114.932 103.822 116.206 102.495 117.119C99.3051 119.121 99.3051 119.121 97.5788 120.043C94.4485 121.621 94.4485 121.621 92.828 122.31C89.7737 123.532 89.7737 123.532 88.1128 124.082C86.5528 124.56 83.6497 125.446 83.2877 125.446C80.0038 126.152 79.8751 126.179 78.1738 126.427C74.6269 126.865 74.4884 126.883 72.5424 126.985C73.0097 126.961 73.4741 126.889 73.9362 126.768Z" fill="white"/>
<path d="M80.7472 120.962C86.0292 120.686 91.438 117.809 92.8256 114.535C94.2133 111.26 91.0562 108.83 85.7733 109.105C80.4903 109.381 75.082 112.258 73.6944 115.533C72.3067 118.806 75.4638 121.237 80.7472 120.962C79.9155 122.248 79.0534 123.324 78.1677 124.196C68.4931 124.7 62.711 120.249 65.2529 114.252C67.7953 108.256 77.6981 102.986 87.3727 102.482C97.0473 101.979 102.83 106.43 100.288 112.426C97.7461 118.422 87.8423 123.692 78.1677 124.196C79.0534 123.324 79.916 122.248 80.7472 120.962Z" fill="white"/>
</svg>
