<svg xmlns="http://www.w3.org/2000/svg" width="142.8" height="40" viewBox="0 0 142.8 40">
  <g id="Page-1" transform="translate(-60 8)">
    <g id="main" transform="translate(-25 -23)">
      <g id="nav" transform="translate(25 23)">
        <path id="logo" d="M92.3-8H63.6A3.585,3.585,0,0,0,60-4.4V28.4A3.585,3.585,0,0,0,63.6,32H92.3a3.585,3.585,0,0,0,3.6-3.6V-4.4A3.585,3.585,0,0,0,92.3-8Zm1.6,36.4A1.58,1.58,0,0,1,92.3,30H63.6A1.58,1.58,0,0,1,62,28.4V-4.4A1.58,1.58,0,0,1,63.6-6H92.3a1.58,1.58,0,0,1,1.6,1.6ZM69,26l4.5-4L69,18ZM85.2,9.8A6.54,6.54,0,0,0,80.4,8a23.844,23.844,0,0,0-7.5,1.4V-2h-4V15.3L71.7,14a24.768,24.768,0,0,1,8.6-2.1c2,0,2.5,1.1,2.5,2.1V26h4V14A5.359,5.359,0,0,0,85.2,9.8ZM79.9,4.5h4a12.063,12.063,0,0,0,3-6.5h-4A14.763,14.763,0,0,1,79.9,4.5Zm110.5,9.4V5.1h4v8.8c0,2,.7,3,2.3,3s2.2-.9,2.2-3V5.1h3.9V14c0,3.9-1.9,6.2-6.2,6.2C192.3,20.1,190.4,17.8,190.4,13.9ZM173.6,5.1h4v5.4l4.1-5.4h4.6l-5,5.8,5.4,9h-4.5L178.7,14l-1.1,1.3v4.6h-4Zm-19,7.3c0-5.4,3.7-7.7,7.3-7.7s7.3,2.3,7.3,7.7-3.7,7.7-7.3,7.7S154.6,17.9,154.6,12.4Zm10.5,0c0-2.7-1.2-4.4-3.3-4.4s-3.3,1.7-3.3,4.4,1.2,4.5,3.3,4.5S165.1,15.2,165.1,12.4ZM138.5,5.1h5.8c3.8,0,6.1,1.3,6.1,4.8,0,2.3-1,3.7-2.9,4.3l3.1,5.7h-4.2l-2.9-5.1h-1.1v5.1h-3.9V5.1Zm5.7,6.6c1.6,0,2.4-.5,2.4-1.7s-.7-1.7-2.4-1.7h-1.7v3.4h1.7Zm-21-6.6h10.6V8.4h-6.6v2.4h4.7v3.1h-4.7v2.7h6.9v3.2H123.2V5.1Zm-18.1,0h4v5.5H114V5.1h4V19.9h-4v-6h-4.9v6h-4Z" fill="#fff"/>
      </g>
    </g>
  </g>
</svg>
