<svg xmlns="http://www.w3.org/2000/svg" width="402.617" height="97.721" viewBox="0 0 402.617 97.721">
  <g id="HTML5_logo_and_wordmark" transform="translate(-108.4 14.313)">
    <path id="Path_1" data-name="Path 1" d="M108.4,0h23V22.8h21.2V0h23V69h-23V46h-21V69H108.4M206,23H185.7V0h63.7V23H229V69H206M259.5,0h24.1l14.8,24.3L313.2,0h24.1V69h-23V34.8L298.2,59.6,282.1,34.8V69H259.5M348.7,0h23V46.2h32.6V69H348.7" fill="#fff"/>
    <g id="Group_1" data-name="Group 1" transform="translate(352 -112.413)">
      <path id="Path_2" data-name="Path 2" d="M115.375,193.226l33.48-9.276,7.43-83.35H74.6L82.03,184Z" fill="none" stroke="#fff" stroke-width="5"/>
      <path id="Path_4" data-name="Path 4" d="M142,176.3h25.667v10.222H153.212l.946,10.469h13.509v10.2H144.792m.45,5.133h10.267l.72,8.173,11.438,3.062v10.672l-20.984-5.854" transform="translate(-52.225 -58.656)" fill="#fff" stroke="#fff" stroke-width="1"/>
      <path id="Path_5" data-name="Path 5" d="M281.422,176.3H255.8v10.222h24.676m-.923,10.469H255.8v10.222h12.608L267.215,220.5,255.8,223.559v10.627l20.939-5.809" transform="translate(-140.403 -58.656)" fill="#fff" stroke="#fff" stroke-width="1"/>
    </g>
  </g>
</svg>
