<svg id="icon3" xmlns="http://www.w3.org/2000/svg" width="26.112" height="22.198" viewBox="0 0 26.112 22.198">
  <path id="Path_1" data-name="Path 1" d="M470.084-427.533a5.218,5.218,0,0,0-2.607,1.01.447.447,0,0,0,.01.5.655.655,0,0,0,.52.372,2.693,2.693,0,0,0,.617-.23,5.241,5.241,0,0,1,2.791-.49,5.106,5.106,0,0,1,4.433,6.387,11.164,11.164,0,0,1-1.872,3.826,2.417,2.417,0,0,0-.679,1.449,1.413,1.413,0,0,0,.883,1.291c.337.184,3.25,1.347,4.168,1.668a2.58,2.58,0,0,1,1.546.974.875.875,0,0,1,.117.9,1.2,1.2,0,0,1-.566.566,7.912,7.912,0,0,1-1.143.082l-1.015.031-.148.168a.653.653,0,0,0-.031.806c.112.128.163.143.7.184a12.424,12.424,0,0,0,1.245.026,1.947,1.947,0,0,0,1.577-.546,2.2,2.2,0,0,0-.092-3.286c-.633-.627-1.316-.949-3.821-1.786-.8-.265-1.546-.53-1.658-.587a.778.778,0,0,1-.469-.586,3.537,3.537,0,0,1,.765-1.433,8.041,8.041,0,0,0,.77-1.275c1.383-2.837,1.326-5.51-.163-7.53a6.237,6.237,0,0,0-3.8-2.418A8.385,8.385,0,0,0,470.084-427.533Z" transform="translate(-455.218 427.569)" fill="#fff"/>
  <path id="Path_2" data-name="Path 2" d="M19.525-324.692a6.237,6.237,0,0,0-3.658,1.9,6.21,6.21,0,0,0-1.6,2.939,7.851,7.851,0,0,0,0,2.806,11.8,11.8,0,0,0,2.23,4.6,3.89,3.89,0,0,1,.337.475c.123.276-.021.347-2.8,1.423-1.4.541-2.653,1.051-2.77,1.128a2.633,2.633,0,0,0-1.2,2.709,1.884,1.884,0,0,0,1.1,1.265l.332.158H29.249l.291-.117a2.247,2.247,0,0,0,1.026-.949,1.364,1.364,0,0,0,.163-.877,1.508,1.508,0,0,0-.219-1.005,2.965,2.965,0,0,0-1.036-1.194c-.153-.092-1.413-.6-2.8-1.138s-2.577-1.01-2.638-1.051c-.214-.138-.153-.316.326-.969a11.768,11.768,0,0,0,2.071-4.2,4.831,4.831,0,0,0,.163-1.658,5.024,5.024,0,0,0-.112-1.464,6.321,6.321,0,0,0-6.163-4.831A7.408,7.408,0,0,0,19.525-324.692Zm2.173,1.26a5.245,5.245,0,0,1,1.051.393A5.143,5.143,0,0,1,25.5-318a10.033,10.033,0,0,1-2.076,4.842,4.989,4.989,0,0,0-.505.811,1.5,1.5,0,0,0,.005.934,1.921,1.921,0,0,0,.77.862c.107.046,1.352.531,2.77,1.082l2.577.99.26.281c.566.6.577,1.342.026,1.653l-.2.112-8.749-.01-8.755-.015-.143-.107a.875.875,0,0,1-.214-1.235c.276-.556.342-.6,2.673-1.5,1.153-.444,2.362-.913,2.689-1.041.959-.372,1.367-.837,1.367-1.546,0-.423-.1-.638-.561-1.255a10.833,10.833,0,0,1-2.02-4.311,6.469,6.469,0,0,1,.1-2.423,5.087,5.087,0,0,1,3.857-3.6A6.554,6.554,0,0,1,21.7-323.432Z" transform="translate(-10.001 327.483)" fill="#fff"/>
</svg>
