<svg xmlns="http://www.w3.org/2000/svg" width="85" height="85" viewBox="0 0 85 85">
  <g id="icon-tools" transform="translate(-304 -3261)">
    <circle id="Ellipse_19" data-name="Ellipse 19" cx="42.5" cy="42.5" r="42.5" transform="translate(304 3261)" fill="#ef7a2c"/>
    <path id="tools" d="M5.655,0,5.09,1.131l5.938,3.393a6.936,6.936,0,0,1-3.676,6.5L1.414,7.635,1.131,8.2c1.414,4.242,4.242,7.069,9.9,7.069,1.414,0,5.655,4.242,7.917,6.5l4.524-4.524c-2.262-2.262-7.352-7.352-7.352-8.766C16.118,3.393,14.7,0,5.655,0ZM41,1.414,35.346,5.373,34.78,7.635l-16.4,16.4-2.262-1.414-1.131,1.131c0,3.393-3.959,5.09-5.655,5.09L0,38.174C0,41,3.11,44.112,5.938,44.112l9.331-9.331c0-1.7,1.7-5.655,5.09-5.655l1.131-1.131-1.414-2.262,16.4-16.4,2.262-.566L42.7,3.11ZM26.863,20.642l-4.524,4.524c3.393,3.393,7.917,7.917,7.917,9.331,0,5.09,1.414,8.483,10.462,8.483l.566-1.131-5.938-3.393a6.936,6.936,0,0,1,3.676-6.5l5.938,3.393.283-.566c-1.414-4.242-4.242-7.069-9.9-7.069C33.932,27.711,30.256,24.035,26.863,20.642Z" transform="translate(323.73 3281.435)" fill="#fff"/>
  </g>
</svg>
