<svg xmlns="http://www.w3.org/2000/svg" width="46.345" height="35.316" viewBox="0 0 46.345 35.316">
  <g id="icon-folder" transform="translate(3.788 -11.094)">
    <path id="_2" data-name="2" d="M10.244,10.708a2.233,2.233,0,0,0-2.219,2.219v1.412a2.206,2.206,0,0,0-1.872,2.152V43.783A2.233,2.233,0,0,0,8.373,46H45.605a2.237,2.237,0,0,0,2.23-2.219V16.491a2.237,2.237,0,0,0-2.23-2.219H24.164V12.927a2.233,2.233,0,0,0-2.219-2.219Z" transform="translate(-7.273 0.386)" fill="none"/>
    <path id="_3" data-name="3" d="M14.618,13.348a1.374,1.374,0,0,0-1.379,1.379v2.186h-.493a1.374,1.374,0,0,0-1.379,1.379V45.582a1.374,1.374,0,0,0,1.379,1.379H49.978a1.384,1.384,0,0,0,1.39-1.379V18.291a1.384,1.384,0,0,0-1.39-1.379H27.7V14.727a1.374,1.374,0,0,0-1.379-1.379Z" transform="translate(-11.649 -1.417)" fill="none"/>
    <path id="_4" data-name="4" d="M15.431,14.625a.9.9,0,0,0-.906.906v2.183a.478.478,0,0,1-.476.476h-.5a.884.884,0,0,0-.894.906V46.383a.884.884,0,0,0,.894.906H50.789a.909.909,0,0,0,.917-.906V19.1a.909.909,0,0,0-.917-.906H28.506a.478.478,0,0,1-.476-.476V15.531a.9.9,0,0,0-.906-.906Z" transform="translate(-12.459 -2.219)" fill="none" stroke="#000" stroke-linecap="round" stroke-linejoin="bevel" stroke-width="2"/>
    <path id="_8" data-name="8" d="M48.3,29.563l-42.081.2a.848.848,0,0,0-.848.859L6.687,55.863c0,.008,0,.015,0,.023a.848.848,0,0,0,.859.848H47.653a.836.836,0,0,0,.848-.848.059.059,0,0,1,0-.012l.662-25.464A.851.851,0,0,0,48.3,29.563Z" transform="translate(-7.883 -11.606)" fill="none" stroke="#000" stroke-linecap="round" stroke-linejoin="bevel" stroke-width="1.949"/>
    <path id="_9" data-name="9" d="M43.189,25.76,1.1,25.95a2.144,2.144,0,0,0-2.13,2.13q0,.022,0,.045L.285,53.353V53.4H.3a2.142,2.142,0,0,0,2.13,2.085h40.1a2.145,2.145,0,0,0,2.13-2.13l.661-25.442c0-.007,0-.015,0-.022A2.144,2.144,0,0,0,43.189,25.76Z" transform="translate(-2.761 -9.073)" fill="none"/>
  </g>
</svg>
