<svg xmlns="http://www.w3.org/2000/svg" width="85" height="85" viewBox="0 0 85 85">
  <g id="icon-frontend" transform="translate(-304 -3261)">
    <circle id="Ellipse_19" data-name="Ellipse 19" cx="42.5" cy="42.5" r="42.5" transform="translate(304 3261)" fill="#ef7a2c"/>
    <g id="layer1" transform="translate(324 3281)">
      <rect id="rect3465" width="9.214" transform="translate(24.036 18.661)" fill="#427bc3"/>
      <g id="g2427" transform="translate(1 1)">
        <path id="rect2420" d="M7.118,1H37.882A6.1,6.1,0,0,1,44,7.118V33.274a6.105,6.105,0,0,1-6.118,6.118H7.118A6.1,6.1,0,0,1,1,33.274V7.118A6.1,6.1,0,0,1,7.118,1Z" transform="translate(-1 -1)" fill="#fff"/>
        <path id="rect2422" d="M6.521,2H37.408a4.511,4.511,0,0,1,4.521,4.521V32.8a4.511,4.511,0,0,1-4.521,4.521H6.521A4.511,4.511,0,0,1,2,32.8V6.521A4.511,4.511,0,0,1,6.521,2Z" transform="translate(-0.464 -0.464)" fill="#ef7a2c"/>
        <path id="rect3231" d="M13,26h6.143v3.071H13Z" transform="translate(5.429 12.393)" fill="#fff"/>
        <path id="rect3233" d="M5.768,28H34.946a.768.768,0,1,1,0,1.536H5.768a.768.768,0,1,1,0-1.536Z" transform="translate(1.143 13.464)" fill="#fff"/>
        <path id="rect3245" d="M4,4V33.179H37.786V4ZM5.536,5.536H36.25V31.643H5.536Z" transform="translate(0.607 0.607)" fill="#fff"/>
        <g id="g2431" transform="translate(9.81 11.133)">
          <path id="path3281" d="M5.748,9.444V6.608l12.771,5.254v2.677L5.748,19.792V16.955l9.613-3.743Z" transform="translate(-5.086 -5.948)" fill="#fff"/>
        </g>
        <g id="g2438" transform="translate(23.635 25.802)">
          <path id="path2424" d="M14.267,15.547a.6.6,0,0,0-.422.589V17.82a.606.606,0,0,0,.59.59H23.4a.6.6,0,0,0,.589-.59V16.136a.6.6,0,0,0-.589-.589H14.435A.588.588,0,0,0,14.267,15.547Z" transform="translate(-13.845 -15.541)" fill="none"/>
          <path id="text3274" d="M23.206,15.929v1.665h-8.98V15.929Z" transform="translate(-13.64 -15.333)" fill="#fff"/>
        </g>
      </g>
    </g>
  </g>
</svg>
