<svg xmlns="http://www.w3.org/2000/svg" width="30.217" height="17.993" viewBox="0 0 30.217 17.993">
  <g id="icon2" transform="translate(1.007 1)">
    <path id="path3166" d="M601.383,389.561a4.743,4.743,0,0,1,5.211,4.174,4.689,4.689,0,0,1-4.261,5.1,4.744,4.744,0,0,1-5.23-4.151,4.688,4.688,0,0,1,4.238-5.118" transform="translate(-587.425 -386.548)" fill="rgba(255,255,255,0)" stroke="#fff" stroke-width="2"/>
    <path id="path3159" d="M190.745,282.11c-7.784.007-14.093-7.591-14.217-7.977-.305-.933,6.2-8,13.981-8s14.33,7.335,14.217,7.977c-.044.249-5.931,7.864-13.563,8" transform="translate(-176.518 -266.13)" fill="rgba(255,255,255,0)" stroke="#fff" stroke-linecap="round" stroke-width="2"/>
    <path id="path3168" d="M601.383,389.561a4.743,4.743,0,0,1,5.211,4.174,4.689,4.689,0,0,1-4.261,5.1,4.744,4.744,0,0,1-5.23-4.151,4.688,4.688,0,0,1,4.238-5.118" transform="translate(-587.393 -386.609)" fill="rgba(255,255,255,0)" stroke="#fff" stroke-width="2"/>
  </g>
</svg>
