<svg xmlns="http://www.w3.org/2000/svg" width="256" height="256.001" viewBox="0 0 256 256.001">
  <g id="linkedin-icon-2" transform="translate(145 -9)">
    <path id="Subtraction_1" data-name="Subtraction 1" d="M-644.92-66H-863.08a19.105,19.105,0,0,1-13.377-5.37A17.929,17.929,0,0,1-882-84.332v-219.33a17.938,17.938,0,0,1,5.543-12.965A19.1,19.1,0,0,1-863.08-322h218.16a19.1,19.1,0,0,1,13.379,5.373A17.94,17.94,0,0,1-626-303.662V-84.335a17.936,17.936,0,0,1-5.541,12.965A19.1,19.1,0,0,1-644.92-66ZM-783-223.01c.492,10.628,0,114.207,0,115.252v0h38.3v-64.355c0-4.286.4-7.256,1.262-9.347a23.886,23.886,0,0,1,6.9-9.587,19.68,19.68,0,0,1,12.759-4.424c6.623,0,11.635,2.429,14.9,7.221,2.99,4.389,4.506,10.728,4.506,18.841v61.65h38.3v-66.082c0-32.481-16.485-51.872-44.1-51.872-19.89,0-29.23,10.855-34.526,19.021V-223.01H-783Zm-59.513,0v115.251H-804.2V-223.014h-38.308Zm19.416-55.558c-12.761,0-21.674,8.189-21.674,19.913,0,11.536,8.9,19.91,21.169,19.91h.249c6.176,0,11.722-1.974,15.623-5.558a19.173,19.173,0,0,0,6.049-14.351C-801.942-270.569-810.549-278.572-823.1-278.572Z" transform="translate(737 331)" fill="#fff"/>
  </g>
</svg>
