<svg xmlns="http://www.w3.org/2000/svg" width="85" height="85" viewBox="0 0 85 85">
  <g id="icon-backend" transform="translate(-304 -3261)">
    <circle id="Ellipse_19" data-name="Ellipse 19" cx="42.5" cy="42.5" r="42.5" transform="translate(304 3261)" fill="#ef7a2c"/>
    <g id="layer1" transform="translate(-9.931 2925.598)">
      <g id="g6070" transform="translate(338.931 355.402)">
        <path id="rect5980" d="M-.106-8992.3a2.278,2.278,0,0,0-2.283,2.283v41.092a2.277,2.277,0,0,0,2.283,2.282H29.571a2.277,2.277,0,0,0,2.283-2.282v-41.092a2.278,2.278,0,0,0-2.283-2.283Zm.38,3.425H29.191v6.682H.274Zm0,8.2H29.191v6.444H.274Zm0,7.967H29.191v6.468H.274Zm0,7.99H29.191v6.444H.274Zm0,7.966H29.191v6.683H.274Z" transform="translate(2.389 8992.298)" fill="#fff"/>
        <g id="g6019" transform="translate(3.709 6.107)">
          <rect id="rect5988" width="1.522" height="3.044" transform="translate(3.43)" fill="#fff"/>
          <rect id="rect5990" width="1.522" height="3.044" fill="#fff"/>
          <rect id="rect5992" width="1.522" height="3.044" transform="translate(6.86)" fill="#fff"/>
        </g>
        <g id="g6024" transform="translate(3.709 14.134)">
          <rect id="rect6026" width="1.522" height="3.044" transform="translate(3.43)" fill="#fff"/>
          <rect id="rect6028" width="1.522" height="3.044" fill="#fff"/>
          <rect id="rect6030" width="1.522" height="3.044" transform="translate(6.86)" fill="#fff"/>
        </g>
        <g id="g6032" transform="translate(3.709 22.16)">
          <rect id="rect6034" width="1.522" height="3.044" transform="translate(3.43)" fill="#fff"/>
          <rect id="rect6036" width="1.522" height="3.044" fill="#fff"/>
          <rect id="rect6038" width="1.522" height="3.044" transform="translate(6.86)" fill="#fff"/>
        </g>
        <g id="g6040" transform="translate(3.709 30.187)">
          <rect id="rect6042" width="1.522" height="3.044" transform="translate(3.43)" fill="#fff"/>
          <rect id="rect6044" width="1.522" height="3.044" fill="#fff"/>
          <rect id="rect6046" width="1.522" height="3.044" transform="translate(6.86)" fill="#fff"/>
        </g>
        <g id="g6048" transform="translate(3.709 38.214)">
          <rect id="rect6050" width="1.522" height="3.044" transform="translate(3.43)" fill="#fff"/>
          <rect id="rect6052" width="1.522" height="3.044" fill="#fff"/>
          <rect id="rect6054" width="1.522" height="3.044" transform="translate(6.86)" fill="#fff"/>
        </g>
        <rect id="rect6056" width="1.522" height="1.522" transform="translate(25.401 7.61)" fill="#fff"/>
        <rect id="rect6060" width="1.522" height="1.522" transform="translate(25.401 15.6)" fill="#fff"/>
        <rect id="rect6064" width="1.522" height="1.522" transform="translate(25.401 31.58)" fill="#fff"/>
        <rect id="rect6066" width="1.522" height="1.522" transform="translate(25.132 23.742)" fill="#fff"/>
        <rect id="rect6068" width="1.522" height="1.522" transform="translate(25.401 39.646)" fill="#fff"/>
      </g>
    </g>
  </g>
</svg>
