<svg xmlns="http://www.w3.org/2000/svg" width="399.999" height="399.618" viewBox="0 0 399.999 399.618">
  <g id="icon-tools" transform="translate(-4.997 -647.532)">
    <path id="path3919" d="M170.87,1031.5l9.78-15.68,2.793.409a154.243,154.243,0,0,0,21.5,1.537c6.946,0,9.726-.186,21.773-1.5l3.68-.4,9.018,14.61c4.96,8.036,9.392,15.12,9.848,15.743.8,1.091,1.1,1.06,8.147-.833a235.607,235.607,0,0,0,31.384-11.053c10.684-4.676,26.554-13.377,26.545-14.554,0-.249-1.89-8.384-4.2-18.079l-4.192-17.627,6.189-5.041a193.539,193.539,0,0,0,24.25-24.266c2.512-3.116,4.961-5.666,5.441-5.666s8.576,1.794,17.991,3.987,17.229,3.987,17.364,3.987c.656,0,7.029-11.441,11.345-20.367a203.263,203.263,0,0,0,13.476-35.725c1.932-7.068,2.33-9.279,1.734-9.641-.425-.258-7.535-4.695-15.8-9.86-11.99-7.494-15-9.636-14.886-10.6,1.88-16.2,1.8-37.2-.184-46.977-.309-1.526.458-2.1,14.819-11.04,8.33-5.187,15.437-9.618,15.794-9.849,1.357-.875-4.374-20.435-9.99-34.1-4.045-9.84-12.989-27.371-16.257-31.863-.055-.076-8.226,1.8-18.158,4.159l-18.057,4.3-1.84-2.309a182.912,182.912,0,0,0-28.98-29.245,52.241,52.241,0,0,1-4.447-3.8c0-.122,1.794-7.943,3.987-17.38s3.987-17.561,3.987-18.053c0-1.727-18.082-11.5-31.407-16.981-13.568-5.577-33.221-11.348-34.108-10.015-.23.346-4.663,7.455-9.851,15.8-6.132,9.861-9.712,15.061-10.232,14.862-.44-.169-5.944-.651-12.233-1.072a137.445,137.445,0,0,0-22.581.011c-6.131.427-11.849.917-12.706,1.088-1.459.291-2.16-.661-10.983-14.92-5.184-8.377-9.621-15.457-9.861-15.733-.983-1.131-20.8,4.688-33.332,9.786-13.335,5.426-32.257,15.65-32.271,17.437-.01.529,1.786,8.493,3.979,17.7s3.987,17.077,3.987,17.493-2.277,2.514-5.06,4.663c-6.509,5.027-20.55,19.068-25.577,25.577-2.149,2.783-4.346,5.056-4.882,5.05s-8.7-1.784-18.147-3.952L32.29,737.571l-1.042,1.345c-1.851,2.39-8.941,15.271-12.051,21.892A217.793,217.793,0,0,0,7.494,793C6.12,798.008,5,802.29,5,802.515s7.057,4.8,15.682,10.171l15.682,9.762-.368,3.68c-1.643,16.424-1.581,30.111.194,42.751l.491,3.5-12.62,7.817c-6.941,4.3-14.05,8.724-15.8,9.834l-3.178,2.016,2.066,7.828A219.488,219.488,0,0,0,18.478,932c3.587,7.929,11.007,21.5,13.2,24.138l1.227,1.477,17.787-4.232,17.787-4.232,1.533,1.95a188.6,188.6,0,0,0,28.675,29.177c3.3,2.632,4.969,4.362,4.8,4.981-.828,2.954-7.711,33.854-7.711,34.616,0,1.818,20.233,12.64,33.12,17.715,10,3.936,27.987,9.49,30.973,9.562.951.023,3.428-3.5,11.007-15.651Zm16.613-46.558c-46.751-6.362-86.28-34.575-106.5-76.015-10.372-21.253-14.31-38.23-14.3-61.64.011-23.477,3.747-39.693,14.111-61.253,6.667-13.868,13.94-24.152,25.36-35.86A138.809,138.809,0,0,1,190.1,709.263c8.8-.957,29.532-.448,37.532.921a140.735,140.735,0,0,1,93.995,61.357c7.678,11.783,15.552,30.325,18.751,44.16A140.532,140.532,0,0,1,329.3,909.517c-20.91,41.837-61.455,70.015-109,75.756-7.138.862-25.4.678-32.809-.331Zm80.351-47.522c1.122-1.24,1.021-1.367-9.1-11.507-8.654-8.665-10.24-10.536-10.24-12.078,0-1.527,1.378-3.206,8.425-10.267,11.308-11.329,9.711-11.448,22.882,1.706,10.127,10.114,10.164,10.143,11.308,8.879,1.126-1.245,1.093-1.473-1.8-12.447l-2.949-11.179-5.853-5.945-5.853-5.945-11.086-2.589-11.086-2.589-34.988-34.88L182.5,803.7l-2.017-8.412c-3.7-15.429-3-13.99-9.784-20.247l-6.051-5.583-10.98-3.067c-10.882-3.04-10.99-3.057-12.186-1.874s-1.132,1.268,9.046,11.511c8.567,8.621,10.253,10.612,10.253,12.109s-1.488,3.282-8.732,10.539c-6.586,6.6-9.109,8.748-10.267,8.748s-3.987-2.449-11.756-10.208c-10.232-10.219-11.565-11.117-12.577-8.479-.2.532.942,6.03,2.546,12.217l2.917,11.25,5.9,5.831,5.9,5.831,11.154,2.619,11.154,2.619,34.888,35.007L226.8,899.115l2.6,11.157,2.6,11.157,6.141,5.661,6.14,5.661,10.539,2.92c5.8,1.606,10.841,2.939,11.211,2.962a3.444,3.444,0,0,0,1.806-1.212Zm-114.41-7.4c3.59-1.661,6.216-4.069,26.371-24.177l22.384-22.332-3.648-3.686-3.648-3.686-9.31,9.189c-8.476,8.366-9.505,9.189-11.485,9.189a3.769,3.769,0,0,1-3.446-1.616c-2.667-3.39-2.018-4.541,8.613-15.263l8.526-8.6-3.838-3.78-3.838-3.78-9.637,9.159c-10.391,9.876-11.546,10.5-14.4,7.826a4.5,4.5,0,0,1-1.42-3.482c0-1.948.857-3.012,9.2-11.415l9.2-9.266-3.685-3.647L165.674,847l-22.1,22.069c-24.136,24.106-25.093,25.317-26.468,33.478a17.326,17.326,0,0,0,3.55,14.594,64.909,64.909,0,0,0,12.459,12.05c5.637,3.721,13.365,4.034,20.3.824ZM224.57,824.6l-21.16-20.766-2.923,2.853-2.923,2.853,21.011,21.018,21.011,21.018,3.072-3.1,3.072-3.1Zm25.617-15.806,15.337-15.8,7.276-2.378,7.277-2.378,6.406-9.319c3.523-5.126,6.5-9.6,6.615-9.947s-2.827-3.45-6.538-6.9l-6.747-6.271-9.471,6.788-9.471,6.788-2.357,6.752-2.357,6.752-16.1,16.094-16.1,16.094,4.734,4.762c2.6,2.619,5.053,4.762,5.442,4.762s7.609-7.11,16.044-15.8Z" fill="#fff"/>
  </g>
</svg>
