<svg xmlns="http://www.w3.org/2000/svg" width="50" height="49.997" viewBox="0 0 50 49.997">
  <g id="icon-mail" transform="translate(-238.082 -382.37)">
    <ellipse id="path3794" cx="25" cy="24.999" rx="25" ry="24.999" transform="translate(238.082 382.37)"/>
    <g id="layer1-7" transform="translate(247.177 396.87)">
      <g id="g6564" transform="translate(0 0)">
        <path id="path4323" d="M3832.627,1021.43a1.3,1.3,0,0,0-1.3,1.3v20.451a1.3,1.3,0,0,0,1.3,1.3h29.216a1.3,1.3,0,0,0,1.3-1.3v-20.451a1.3,1.3,0,0,0-1.3-1.3Zm3.459,3.107h22.291l-11.144,9.737-11.147-9.737Zm24.46,1.551v14.385l-8.15-7.265,8.15-7.12Zm-26.621.008,8.184,7.151-8.184,7.3V1026.1Zm16.5,8.832,7.754,6.913h-21.811l7.708-6.872,2.3,2.008a1.3,1.3,0,0,0,1.708,0Z" transform="translate(-3831.33 -1021.43)" fill="#fff"/>
      </g>
    </g>
  </g>
</svg>
