<svg xmlns="http://www.w3.org/2000/svg" width="52.263" height="49.446" viewBox="0 0 52.263 49.446">
  <g id="icon-home" transform="translate(-42.34 -276.34)">
    <path id="rect2391" d="M148.127,371.495Zm0,0L129.783,355.25,111.43,371.5v23.222a1.08,1.08,0,0,0,1.084,1.082h11.47V385.623a1.08,1.08,0,0,1,1.082-1.084h9.424a1.08,1.08,0,0,1,1.082,1.084v10.182h11.474a1.078,1.078,0,0,0,1.082-1.082ZM111.43,371.5Z" transform="translate(-61.306 -70.02)"/>
    <path id="path2399" d="M68.371,276.34,42.34,299.39l2.742,3.093,23.395-20.717,23.39,20.717L94.6,299.39,68.578,276.34l-.1.117-.106-.117Z"/>
    <path id="rect2404" d="M111.43,305.79h6.6l-.057,3.908-6.541,5.909V305.79Z" transform="translate(-61.306 -26.132)"/>
  </g>
</svg>
