<svg xmlns="http://www.w3.org/2000/svg" width="35" height="35" viewBox="0 0 35 35">
  <path id="icon-github" d="M17.5,0A17.726,17.726,0,0,0,0,17.942,17.908,17.908,0,0,0,11.968,34.967c.875.164,1.194-.39,1.194-.863,0-.427-.016-1.842-.025-3.34-4.866,1.084-5.895-2.116-5.895-2.116A4.727,4.727,0,0,0,5.3,26.024c-1.59-1.113.121-1.091.121-1.091A3.684,3.684,0,0,1,8.1,26.782,3.673,3.673,0,0,0,13.2,28.272a3.873,3.873,0,0,1,1.111-2.4c-3.885-.453-7.971-1.993-7.971-8.868a7.045,7.045,0,0,1,1.8-4.815,6.615,6.615,0,0,1,.173-4.751s1.468-.482,4.813,1.84a16.173,16.173,0,0,1,8.761,0c3.339-2.324,4.809-1.84,4.809-1.84a6.587,6.587,0,0,1,.175,4.748,7.024,7.024,0,0,1,1.8,4.815c0,6.893-4.093,8.41-7.992,8.855a4.332,4.332,0,0,1,1.188,3.32c0,2.4-.024,4.332-.024,4.924,0,.477.318,1.036,1.2.861A17.916,17.916,0,0,0,35,17.942,17.726,17.726,0,0,0,17.5,0Z" fill="#fff"/>
</svg>
