<svg xmlns="http://www.w3.org/2000/svg" width="39.873" height="39.893" viewBox="0 0 39.873 39.893">
  <g id="icon-globe" transform="translate(-0.141 -0.137)">
    <g id="g9249" transform="translate(0.26 -0.169)">
      <path id="path1061" d="M40.762,28.333A19.124,19.124,0,1,1,21.638,9.2,19.129,19.129,0,0,1,40.762,28.333Z" transform="translate(-1.821 -8.081)" fill="none" stroke="#fff" stroke-width="1.625"/>
      <path id="path2925" d="M25.793,28.333c0,10.567-5.418,19.134-12.1,19.134S1.591,38.9,1.591,28.333,7.009,9.2,13.692,9.2s12.1,8.566,12.1,19.134Z" transform="translate(5.978 -8.081)" fill="none" stroke="#fff" stroke-width="1.625"/>
      <path id="path2926" d="M19.032,8.573l-.3,38.378" transform="translate(0.71 -7.588)" fill="none" stroke="#fff" stroke-width="1.625"/>
      <path id="path4169" d="M-.163,27.711l38.14-.168" transform="translate(0.71 -7.588)" fill="none" stroke="#fff" stroke-width="1.625"/>
      <path id="path4791" d="M2.585,18.074l32.725-.168" transform="translate(0.71 -7.588)" fill="none" stroke="#fff" stroke-width="1.625"/>
      <path id="path4792" d="M2.748,37.933l32.725-.168" transform="translate(0.71 -7.588)" fill="none" stroke="#fff" stroke-width="1.625"/>
    </g>
  </g>
</svg>
