<svg xmlns="http://www.w3.org/2000/svg" width="26.725" height="26.923" viewBox="0 0 26.725 26.923">
  <g id="icon1" transform="translate(1.171 1.038)">
    <g id="g5045" transform="translate(0)">
      <g id="g4004" transform="translate(0)">
        <g id="g4024">
          <path id="path3782" d="M231.722,582.55l.195.434a1.008,1.008,0,0,0-.339.284c.033.156.3.216.334.378-.1.094-.259.131-.356.262a1.218,1.218,0,0,0,.328.339c-.132.067-.165.123-.245.289.07.056.2.2.323.295.163.159.562.556.562.556,0,.018.084.039.195.056l.428.467a1.923,1.923,0,0,0,1.218.022l.478-.506a1.265,1.265,0,0,0,.178-.044,3.593,3.593,0,0,0,.584-.579,2.2,2.2,0,0,0,.256-.389.625.625,0,0,0-.2-.223c.066-.1.274-.144.306-.317l-.312-.25c.038-.146.261-.227.3-.373-.039-.126-.219-.2-.306-.289l.111-.412h-4.039Z" transform="translate(-221.861 -561.131)" fill="none" stroke="#fff" stroke-linecap="round" stroke-linejoin="round" stroke-dashoffset="3.003" stroke-width="2"/>
          <path id="path3005" d="M218.609,502.219a5.505,5.505,0,0,0-5.518,5.694c-.091.818.943,2.786,1.86,3.889,1.243,2.236,1.362,2.5,1.444,4.942a.461.461,0,0,0,.363.415,11.134,11.134,0,0,0,3.789.018c.229-.076.367-.222.351-.421.091-3.314.6-3.113,2.118-5.662a7.117,7.117,0,0,0,1.16-3.633c.09-4.388-3.93-5.195-5.568-5.242Z" transform="translate(-206.795 -495.609)" fill="none" stroke="#fff" stroke-linecap="round" stroke-linejoin="round" stroke-dashoffset="3.003" stroke-width="2"/>
          <path id="path4006" d="M240.154,466.36l-.184,4.793" transform="translate(-228.725 -466.36)" fill="none" stroke="#fff" stroke-linecap="round" stroke-linejoin="round" stroke-dashoffset="3.003" stroke-width="2"/>
          <path id="path4008" d="M195.97,481.36l3.318,4.055" transform="translate(-192.836 -478.595)" fill="none" stroke="#fff" stroke-linecap="round" stroke-linejoin="round" stroke-dashoffset="3.003" stroke-width="2"/>
          <path id="path4010" d="M178.97,520.36l4.793.922" transform="translate(-178.97 -510.406)" fill="none" stroke="#fff" stroke-linecap="round" stroke-linejoin="round" stroke-dashoffset="3.003" stroke-width="2"/>
          <path id="path4012" d="M269.97,481.522l2.765-5.162" transform="translate(-253.195 -474.517)" fill="none" stroke="#fff" stroke-linecap="round" stroke-linejoin="round" stroke-dashoffset="3.003" stroke-width="2"/>
          <path id="path4014" d="M284.97,527.544l4.977-.184" transform="translate(-265.43 -516.115)" fill="none" stroke="#fff" stroke-linecap="round" stroke-linejoin="round" stroke-dashoffset="3.003" stroke-width="2"/>
          <path id="path4020" d="M278.97,555.36l3.134,2.581" transform="translate(-260.536 -538.954)" fill="none" stroke="#fff" stroke-linecap="round" stroke-linejoin="round" stroke-dashoffset="3.003" stroke-width="2"/>
          <path id="path4022" d="M193.841,552.36l-3.871,2.4" transform="translate(-187.942 -536.507)" fill="none" stroke="#fff" stroke-linecap="round" stroke-linejoin="round" stroke-dashoffset="3.003" stroke-width="2"/>
        </g>
      </g>
    </g>
  </g>
</svg>
