<svg xmlns="http://www.w3.org/2000/svg" width="224.684" height="222.186" viewBox="0 0 224.684 222.186">
  <g id="icon-frontend" transform="translate(1.5 1.5)">
    <rect id="rect3465" width="47.075" transform="translate(118.688 91.228)" fill="#427bc3"/>
    <g id="g2427" transform="translate(1 1)">
      <path id="rect2420" d="M32.258,1H189.426a31.19,31.19,0,0,1,31.258,31.258V165.89a31.191,31.191,0,0,1-31.258,31.258H32.258A31.19,31.19,0,0,1,1,165.89V32.258A31.188,31.188,0,0,1,32.256,1Z" transform="translate(-1 -1)" fill="none" stroke="#fff" stroke-width="5"/>
      <path id="rect2422" d="M25.1,2h157.8a23.048,23.048,0,0,1,23.1,23.1V159.356a23.048,23.048,0,0,1-23.1,23.1H25.1A23.048,23.048,0,0,1,2,159.356V25.1A23.048,23.048,0,0,1,25.1,2Z" transform="translate(5.848 5.846)" fill="none"/>
      <path id="rect2424" d="M5,5H161.917V138.38H5Z" transform="translate(26.384 26.384)" fill="none"/>
      <path id="rect3231" d="M13,26H44.383V41.692H13Z" transform="translate(81.152 170.147)" fill="#fff"/>
      <path id="rect3233" d="M8.923,28H157.993a3.923,3.923,0,0,1,0,7.846H8.923a3.923,3.923,0,1,1,0-7.846Z" transform="translate(26.384 183.84)" fill="#fff"/>
      <path id="rect3245" d="M4,4V153.071H176.609V4Zm7.846,7.846H168.763V145.225H11.846Z" transform="translate(19.538 19.538)" fill="#fff" stroke="#fff" stroke-width="1"/>
    </g>
  </g>
</svg>
