<svg width="293" height="72" viewBox="0 0 293 72" fill="none" xmlns="http://www.w3.org/2000/svg">
<g clip-path="url(#clip0_132_2)">
<path d="M16.8923 13.3846C19.2 13.3846 21.1385 11.4462 21.1385 9.13846C21.1385 6.83077 19.2 4.89231 16.8923 4.89231C14.5846 4.89231 12.6462 6.83077 12.6462 9.13846C12.6462 11.4462 14.5846 13.3846 16.8923 13.3846ZM14.5846 43.3846C14.5846 44.0308 15.1385 44.5846 15.7846 44.5846C16.4308 44.5846 16.9846 44.0308 16.9846 43.3846C16.9846 42.7385 16.4308 42.1846 15.7846 42.1846C15.1385 42.1846 14.5846 42.7385 14.5846 43.3846ZM23.0769 18.7385C24.0923 18.7385 24.8308 17.9077 24.8308 16.9846C24.8308 15.9692 24 15.2308 23.0769 15.2308C22.0615 15.2308 21.3231 16.0615 21.3231 16.9846C21.3231 17.9077 22.0615 18.7385 23.0769 18.7385ZM9.13846 34.7077C11.4462 34.7077 13.3846 32.7692 13.3846 30.4615C13.3846 28.1538 11.4462 26.2154 9.13846 26.2154C6.83077 26.2154 4.89231 28.1538 4.89231 30.4615C4.98462 32.7692 6.83077 34.7077 9.13846 34.7077ZM3.04615 24.7385C4.06154 24.7385 4.8 23.9077 4.8 22.9846C4.8 21.9692 3.96923 21.2308 3.04615 21.2308C2.03077 21.2308 1.29231 22.0615 1.29231 22.9846C1.29231 24 2.03077 24.7385 3.04615 24.7385ZM2.4 28.6154C2.4 27.9692 1.84615 27.4154 1.2 27.4154C0.553846 27.4154 0 27.9692 0 28.6154C0 29.2615 0.553846 29.8154 1.2 29.8154C1.84615 29.8154 2.4 29.2615 2.4 28.6154ZM8.03077 18.6462C9.69231 18.6462 10.9846 17.3538 10.9846 15.6923C10.9846 14.0308 9.69231 12.7385 8.03077 12.7385C6.36923 12.7385 5.07692 14.0308 5.07692 15.6923C5.07692 17.3538 6.36923 18.6462 8.03077 18.6462ZM43.9385 2.4C44.5846 2.4 45.1385 1.84615 45.1385 1.2C45.1385 0.553846 44.5846 0 43.9385 0C43.2923 0 42.7385 0.553846 42.7385 1.2C42.7385 1.84615 43.2923 2.4 43.9385 2.4ZM11.6308 42.9231C11.6308 40.0615 9.32308 37.7538 6.46154 37.7538C3.6 37.7538 1.29231 40.0615 1.29231 42.9231C1.29231 45.7846 3.6 48.0923 6.46154 48.0923C9.32308 48.0923 11.6308 45.7846 11.6308 42.9231ZM63.4154 21.1385C65.7231 21.1385 67.6615 19.2 67.6615 16.8923C67.6615 14.5846 65.7231 12.6462 63.4154 12.6462C61.1077 12.6462 59.1692 14.5846 59.1692 16.8923C59.1692 19.2 61.0154 21.1385 63.4154 21.1385ZM53.9077 50.3077C53.9077 51.9692 55.2 53.2615 56.8615 53.2615C58.5231 53.2615 59.8154 51.9692 59.8154 50.3077C59.8154 48.6461 58.5231 47.3538 56.8615 47.3538C55.2 47.3538 53.9077 48.6461 53.9077 50.3077ZM56.8615 10.9846C58.5231 10.9846 59.8154 9.69231 59.8154 8.03077C59.8154 6.36923 58.5231 5.07692 56.8615 5.07692C55.2 5.07692 53.9077 6.36923 53.9077 8.03077C53.9077 9.69231 55.2 10.9846 56.8615 10.9846ZM50.3077 18.6462C51.9692 18.6462 53.2615 17.3538 53.2615 15.6923C53.2615 14.0308 51.9692 12.7385 50.3077 12.7385C48.6461 12.7385 47.3538 14.0308 47.3538 15.6923C47.3538 17.3538 48.6461 18.6462 50.3077 18.6462ZM60.9231 29.0769C60.9231 31.9385 63.2308 34.2461 66.0923 34.2461C68.9538 34.2461 71.2615 31.9385 71.2615 29.0769C71.2615 26.2154 68.9538 23.9077 66.0923 23.9077C63.2308 23.9077 60.9231 26.2154 60.9231 29.0769ZM57.9692 28.6154C57.9692 27.9692 57.4154 27.4154 56.7692 27.4154C56.1231 27.4154 55.5692 27.9692 55.5692 28.6154C55.5692 29.2615 56.1231 29.8154 56.7692 29.8154C57.4154 29.8154 57.9692 29.2615 57.9692 28.6154ZM49.4769 4.70769C50.4923 4.70769 51.2308 3.87692 51.2308 2.95385C51.2308 2.03077 50.4 1.2 49.4769 1.2C48.4615 1.2 47.7231 2.03077 47.7231 2.95385C47.7231 3.87692 48.5538 4.70769 49.4769 4.70769ZM55.0154 24.7385C56.0308 24.7385 56.7692 23.9077 56.7692 22.9846C56.7692 21.9692 55.9385 21.2308 55.0154 21.2308C54.0923 21.2308 53.2615 22.0615 53.2615 22.9846C53.2615 24 54.0923 24.7385 55.0154 24.7385ZM18.6462 21.6923C18.6462 20.0308 17.3538 18.7385 15.6923 18.7385C14.0308 18.7385 12.7385 20.0308 12.7385 21.6923C12.7385 23.3538 14.0308 24.6462 15.6923 24.6462C17.3538 24.6462 18.6462 23.3538 18.6462 21.6923ZM49.4769 53.2615C48.4615 53.2615 47.7231 54.0923 47.7231 55.0154C47.7231 56.0308 48.5538 56.7692 49.4769 56.7692C50.4923 56.7692 51.2308 55.9385 51.2308 55.0154C51.2308 54.0923 50.4923 53.2615 49.4769 53.2615ZM43.4769 60.3692C40.6154 60.3692 38.3077 62.6769 38.3077 65.5385C38.3077 68.4 40.6154 70.7077 43.4769 70.7077C46.3385 70.7077 48.6462 68.4 48.6462 65.5385C48.6462 62.6769 46.3385 60.3692 43.4769 60.3692ZM55.6615 58.6154C53.3538 58.6154 51.4154 60.5538 51.4154 62.8615C51.4154 65.1692 53.3538 67.1077 55.6615 67.1077C57.9692 67.1077 59.9077 65.1692 59.9077 62.8615C59.9077 60.5538 57.9692 58.6154 55.6615 58.6154ZM42.7385 56.7692C42.7385 57.4154 43.2923 57.9692 43.9385 57.9692C44.5846 57.9692 45.1385 57.4154 45.1385 56.7692C45.1385 56.1231 44.5846 55.5692 43.9385 55.5692C43.2923 55.6615 42.7385 56.1231 42.7385 56.7692ZM71.3538 42.1846C70.7077 42.1846 70.1538 42.7385 70.1538 43.3846C70.1538 44.0308 70.7077 44.5846 71.3538 44.5846C72 44.5846 72.5538 44.0308 72.5538 43.3846C72.5538 42.7385 71.9077 42.1846 71.3538 42.1846ZM69.5077 47.2615C68.4923 47.2615 67.7538 48.0923 67.7538 49.0154C67.7538 50.0308 68.5846 50.7692 69.5077 50.7692C70.5231 50.7692 71.2615 49.9385 71.2615 49.0154C71.2615 48 70.5231 47.2615 69.5077 47.2615ZM41.5385 13.3846C43.8462 13.3846 45.7846 11.4462 45.7846 9.13846C45.7846 6.83077 43.8462 4.89231 41.5385 4.89231C39.2308 4.89231 37.2923 6.83077 37.2923 9.13846C37.2923 11.4462 39.2308 13.3846 41.5385 13.3846ZM63.4154 37.2923C61.1077 37.2923 59.1692 39.2308 59.1692 41.5385C59.1692 43.8461 61.1077 45.7846 63.4154 45.7846C65.7231 45.7846 67.6615 43.8461 67.6615 41.5385C67.5692 39.2308 65.7231 37.2923 63.4154 37.2923ZM9.13846 50.8615C6.83077 50.8615 4.89231 52.8 4.89231 55.1077C4.89231 57.4154 6.83077 59.3538 9.13846 59.3538C11.4462 59.3538 13.3846 57.4154 13.3846 55.1077C13.3846 52.8 11.5385 50.8615 9.13846 50.8615ZM64.5231 53.3538C62.8615 53.3538 61.5692 54.6461 61.5692 56.3077C61.5692 57.9692 62.8615 59.2615 64.5231 59.2615C66.1846 59.2615 67.4769 57.9692 67.4769 56.3077C67.4769 54.6461 66.1846 53.3538 64.5231 53.3538ZM17.5385 47.2615C16.5231 47.2615 15.7846 48.0923 15.7846 49.0154C15.7846 50.0308 16.6154 50.7692 17.5385 50.7692C18.4615 50.7692 19.2923 49.9385 19.2923 49.0154C19.2923 48 18.4615 47.2615 17.5385 47.2615ZM22.2462 53.3538C20.5846 53.3538 19.2923 54.6461 19.2923 56.3077C19.2923 57.9692 20.5846 59.2615 22.2462 59.2615C23.9077 59.2615 25.2 57.9692 25.2 56.3077C25.2 54.6461 23.9077 53.3538 22.2462 53.3538ZM23.0769 67.2923C22.0615 67.2923 21.3231 68.1231 21.3231 69.0461C21.3231 69.9692 22.1538 70.8 23.0769 70.8C24.0923 70.8 24.8308 69.9692 24.8308 69.0461C24.8308 68.1231 24 67.2923 23.0769 67.2923ZM15.6923 61.0154C14.0308 61.0154 12.7385 62.3077 12.7385 63.9692C12.7385 65.6308 14.0308 66.9231 15.6923 66.9231C17.3538 66.9231 18.6462 65.6308 18.6462 63.9692C18.6462 62.3077 17.3538 61.0154 15.6923 61.0154ZM27.5077 15.2308C27.5077 15.8769 28.0615 16.4308 28.7077 16.4308C29.3538 16.4308 29.9077 15.8769 29.9077 15.2308C29.9077 14.5846 29.3538 14.0308 28.7077 14.0308C27.9692 14.0308 27.5077 14.5846 27.5077 15.2308ZM34.2462 6.36923C34.2462 3.50769 31.9385 1.2 29.0769 1.2C26.2154 1.2 23.9077 3.50769 23.9077 6.36923C23.9077 9.23077 26.2154 11.5385 29.0769 11.5385C31.9385 11.6308 34.2462 9.32308 34.2462 6.36923ZM28.6154 69.6C27.9692 69.6 27.4154 70.1538 27.4154 70.8C27.4154 71.4461 27.9692 72 28.6154 72C29.2615 72 29.8154 71.4461 29.8154 70.8C29.8154 70.1538 29.2615 69.6 28.6154 69.6ZM31.0154 58.6154C28.7077 58.6154 26.7692 60.5538 26.7692 62.8615C26.7692 65.1692 28.7077 67.1077 31.0154 67.1077C33.3231 67.1077 35.2615 65.1692 35.2615 62.8615C35.2615 60.5538 33.3231 58.6154 31.0154 58.6154Z" fill="white"/>
<path d="M93 31.4363H95.9304C96.0799 33.081 96.4387 33.5295 97.0069 33.5295C98.203 33.5295 98.203 32.2736 98.203 23.6319V14.6912H95.9304V12.299H101.193V23.6319C101.193 33.2006 101.193 36.5197 97.0069 36.5197C94.3755 36.5197 93.3588 35.0844 93 31.4363V31.4363ZM104.408 23.6319V12.299H107.398V23.6319C107.398 32.2736 107.398 33.5295 108.893 33.5295C110.388 33.5295 110.388 32.2736 110.388 23.6319V12.299H113.378V23.6319C113.378 33.2006 113.378 36.5197 108.893 36.5197C104.408 36.5197 104.408 33.2006 104.408 23.6319V23.6319ZM116.593 36.2207V23.6618C116.593 15.3191 116.593 12.0299 121.078 12.0299C125.563 12.0299 125.563 15.3191 125.563 23.6618V36.2207H122.573V29.3432H119.583V36.2207H116.593ZM119.583 26.951H122.573V23.6618C122.573 15.8873 122.573 14.4221 121.078 14.4221C119.583 14.4221 119.583 15.8873 119.583 23.6618V26.951ZM128.927 36.2207V12.299H131.619L135.536 26.951L135.506 26.652V12.299H138.496V36.2207H135.805L131.888 23.0638L131.918 23.3628V36.2207H128.927ZM148.812 36.2207V12.299H153.656C156.736 12.299 157.544 14.1829 157.783 18.6981V19.6549C157.544 24.1701 156.736 26.054 153.656 26.054H151.802V36.2207H148.812V36.2207ZM151.802 23.6618H153.656C154.553 23.6618 154.882 22.9143 155.002 19.6549V18.6981C154.882 15.4387 154.553 14.6912 153.656 14.6912H151.802V23.6618ZM160.25 36.2207V23.6618C160.25 15.3191 160.25 12.0299 164.735 12.0299C169.22 12.0299 169.22 15.3191 169.22 23.6618V36.2207H166.23V29.3432H163.24V36.2207H160.25ZM163.24 26.951H166.23V23.6618C166.23 15.8873 166.23 14.4221 164.735 14.4221C163.24 14.4221 163.24 15.8873 163.24 23.6618V26.951ZM172.584 36.2207V12.299H177.129C180.209 12.299 181.226 14.2128 181.226 17.6515V18.2794C181.226 20.3427 180.748 21.9574 180.209 23.1236V23.2432C181.316 24.1701 182.004 25.9942 182.153 29.1638V30.1207C181.914 34.3368 180.807 36.2207 177.728 36.2207H172.584ZM175.575 22.4657H177.129C177.967 22.4657 178.565 21.479 178.565 18.2794V17.6515C178.565 15.349 178.027 14.6912 177.129 14.6912H175.575V22.4657ZM175.575 33.2305H177.728C178.625 33.2305 179.253 32.4829 179.372 30.1207V29.1638C179.253 25.6054 178.625 24.8579 177.728 24.8579H175.575V33.2305ZM184.62 36.2207V12.299H187.61V33.2305H191.497V36.2207H184.62V36.2207ZM193.366 23.6319C193.366 15.2892 193.546 12 198.031 12C202.516 12 202.696 15.2892 202.696 23.6319C202.696 33.2006 202.516 36.5197 198.031 36.5197C193.546 36.5197 193.366 33.2006 193.366 23.6319ZM196.357 23.6319C196.357 32.2736 196.357 33.5295 198.031 33.5295C199.706 33.5295 199.706 32.2736 199.706 23.6319C199.706 15.8574 199.706 14.3922 198.031 14.3922C196.357 14.3922 196.357 15.8574 196.357 23.6319V23.6319ZM212.713 36.2207V12.299H215.404L218.544 27.2501H218.843L221.983 12.299H224.674V36.2207H221.684V24.2599L219.561 36.2207H217.766L215.703 24.2599V36.2207H212.713V36.2207ZM228.038 36.2207V12.299H231.028V36.2207H228.038ZM234.392 36.2207V12.299H239.236C242.316 12.299 243.363 14.1829 243.363 17.801C243.363 21.0603 242.974 22.9143 242.047 23.8113V23.9907C242.824 24.2598 243.064 25.6652 243.363 29.1638L243.961 36.2207H240.97L240.582 29.1638C240.372 25.6054 239.834 24.8579 238.937 24.8579H237.382V36.2207H234.392ZM237.382 22.4657H239.236C240.283 22.4657 240.582 21.4192 240.582 17.801C240.582 15.4387 240.133 14.6912 239.236 14.6912H237.382V22.4657ZM246.727 36.2207V23.6618C246.727 15.3191 246.727 12.0299 251.212 12.0299C255.697 12.0299 255.697 15.3191 255.697 23.6618V36.2207H252.707V29.3432H249.717V36.2207H246.727ZM249.717 26.951H252.707V23.6618C252.707 15.8873 252.707 14.4221 251.212 14.4221C249.717 14.4221 249.717 15.8873 249.717 23.6618V26.951ZM259.061 36.2207V12.299H261.752L265.67 26.951L265.64 26.652V12.299H268.63V36.2207H265.939L262.021 23.0638L262.051 23.3628V36.2207H259.061ZM271.994 36.2207V12.299H276.479C280.964 12.299 280.964 15.5882 280.964 23.6319C280.964 32.9015 280.964 36.2207 276.479 36.2207H271.994ZM274.984 33.2305H276.479C278.154 33.2305 278.154 31.9746 278.154 23.6319C278.154 16.1564 278.154 14.6912 276.479 14.6912H274.984V33.2305ZM284.029 36.2207V23.6618C284.029 15.3191 284.029 12.0299 288.515 12.0299C293 12.0299 293 15.3191 293 23.6618V36.2207H290.01V29.3432H287.02V36.2207H284.029ZM287.02 26.951H290.01V23.6618C290.01 15.8873 290.01 14.4221 288.515 14.4221C287.02 14.4221 287.02 15.8873 287.02 23.6618V26.951Z" fill="white"/>
<path d="M96.1833 59.3375L93 47.1688H95.6275L98.0024 56.3822L100.723 47.1688H102.853L105.557 56.3822L107.957 47.1688H110.576L107.392 59.3375H104.142L101.784 51.8171L99.4341 59.3375H96.1834H96.1833ZM121.145 49.3919H116.631V52.1542H120.631V54.3521H116.631V57.106H121.145V59.3377H114.088V47.1689H121.145V49.3922V49.3919ZM131.848 52.9119C133.221 53.2909 134.139 54.192 134.139 55.9268C134.139 57.9817 132.893 59.3375 130.324 59.3375H125.313V47.1688H129.255C131.882 47.1688 133.263 48.4319 133.263 50.5037C133.263 51.5732 132.8 52.4491 131.848 52.9123L131.848 52.9119ZM129.28 49.2652H127.747V52.1285H129.389C130.467 52.1285 130.939 51.4884 130.939 50.6631C130.939 49.8547 130.408 49.2652 129.28 49.2652H129.28ZM129.852 57.1732C131.217 57.1732 131.688 56.4405 131.688 55.6489C131.688 54.8404 131.225 54.074 129.802 54.074H127.747V57.1732H129.852ZM144.001 59.3375V47.1688H148.405C152.287 47.1688 154.207 49.611 154.207 53.2491C154.207 56.8956 152.287 59.3378 148.405 59.3378H144.001V59.3375ZM146.527 57.1058H148.279C150.519 57.1058 151.546 55.7079 151.546 53.2488C151.546 50.7896 150.519 49.3917 148.279 49.3917H146.527V57.1058V57.1058ZM165.198 49.3919H160.684V52.1542H164.684V54.3521H160.684V57.106H165.198V59.3377H158.141V47.1689H165.198V49.3922V49.3919ZM177.106 47.1688H179.792L175.295 59.3375H172.516L168.044 47.1688H170.722L173.914 56.39L177.106 47.1688ZM190.243 49.3919H185.729V52.1542H189.73V54.3521H185.729V57.106H190.243V59.3377H183.186V47.1689H190.243V49.3922V49.3919ZM196.938 57.1058H200.753V59.3375H194.412V47.1688H196.938V57.1058V57.1058ZM209.638 59.506C206.059 59.506 203.414 57.0638 203.414 53.2488C203.414 49.4254 206.059 47 209.638 47C213.209 47 215.853 49.4254 215.853 53.2488C215.853 57.0637 213.209 59.506 209.638 59.506ZM209.638 57.1901C211.735 57.1901 213.343 55.7163 213.343 53.2488C213.343 50.7897 211.735 49.3244 209.638 49.3244C207.541 49.3244 205.932 50.7897 205.932 53.2488C205.932 55.7163 207.541 57.1901 209.638 57.1901ZM224.805 47.1688C227.188 47.1688 228.67 48.9373 228.67 51.1016C228.67 53.3164 227.188 54.9755 224.805 54.9755H222.27V59.3378H219.744V47.169H224.805L224.805 47.1688ZM224.384 52.8614C225.647 52.8614 226.237 52.1624 226.237 51.0676C226.237 50.0149 225.647 49.2822 224.384 49.2822H222.27V52.8614H224.384V52.8614ZM239.416 49.3919H234.903V52.1542H238.903V54.3521H234.903V57.106H239.416V59.3377H232.359V47.1689H239.416V49.3922V49.3919ZM250.01 59.3375L246.844 53.9815H246.111V59.3375H243.585V47.1688H247.998C250.752 47.1688 251.914 48.7941 251.914 50.8069C251.914 52.4406 250.987 53.5018 249.337 53.8555L253 59.3379H250.01L250.01 59.3375ZM246.111 49.2652V52.1705H247.602C248.949 52.1705 249.497 51.5979 249.497 50.722C249.497 49.8546 248.949 49.2651 247.602 49.2651H246.111V49.2652Z" fill="white"/>
</g>
<defs>
<clipPath id="clip0_132_2">
<rect width="293" height="72" fill="white"/>
</clipPath>
</defs>
</svg>
