<svg xmlns="http://www.w3.org/2000/svg" xmlns:xlink="http://www.w3.org/1999/xlink" width="190.048" height="190.049" viewBox="0 0 190.048 190.049">
  <defs>
    <linearGradient id="linear-gradient" x1="0.5" x2="0.5" y2="1" gradientUnits="objectBoundingBox">
      <stop offset="0" stop-color="#e8b62e"/>
      <stop offset="1" stop-color="#745b17"/>
    </linearGradient>
    <filter id="Subtraction_1" x="0" y="0" width="190.048" height="190.049" filterUnits="userSpaceOnUse">
      <feOffset dy="3" input="SourceAlpha"/>
      <feGaussianBlur stdDeviation="3" result="blur"/>
      <feFlood flood-opacity="0.161"/>
      <feComposite operator="in" in2="blur"/>
      <feComposite in="SourceGraphic"/>
    </filter>
  </defs>
  <g id="Group_9" data-name="Group 9" transform="translate(-835.976 -293.976)">
    <g transform="matrix(1, 0, 0, 1, 835.98, 293.98)" filter="url(#Subtraction_1)">
      <path id="Subtraction_1-2" data-name="Subtraction 1" d="M87.681,173.706a3.975,3.975,0,0,1-2.829-1.171L2.829,90.509a4,4,0,0,1,0-5.657L84.853,2.829a4,4,0,0,1,5.656,0l82.024,82.024a4,4,0,0,1,0,5.657L90.509,172.535A3.973,3.973,0,0,1,87.681,173.706Zm-.3-83.447h0c.048,1.505.073,2.637.073,3.365a33.874,33.874,0,0,1-1.053,8.469,32.774,32.774,0,0,1-3.159,7.828c-2.8,4.982-5.863,8.407-9.119,10.181s-8.7,3.487-16.186,5.09l-.586,2.49h62.109l-.586-2.49c-7.728-1.507-13.58-3.528-17.394-6.006A25.017,25.017,0,0,1,92.515,108.6C90.376,104.058,89.193,97.885,89,90.255c6.173,11.518,14.428,17.358,24.537,17.358a19.114,19.114,0,0,0,13.879-5.97,20.131,20.131,0,0,0,5.97-14.758,20.726,20.726,0,0,0-5.2-14.062,16.531,16.531,0,0,0-12.891-5.933c-2.722,0-6.714,1.306-11.866,3.883,3.353-4.519,5.054-9.126,5.054-13.7a18.476,18.476,0,0,0-6.006-13.843A20.276,20.276,0,0,0,88.046,37.52a19.669,19.669,0,0,0-14.429,5.786,19.312,19.312,0,0,0-5.786,14.135c0,3.645,1.651,8.13,4.908,13.331-4.859-2.478-8.876-3.736-11.938-3.736-4.715,0-8.891,2.008-12.415,5.97a20.7,20.7,0,0,0-5.31,14.172,20.319,20.319,0,0,0,20.288,20.507,23.746,23.746,0,0,0,13.55-4.468A31.335,31.335,0,0,0,87.386,90.259Z" transform="translate(7.34 4.34)" fill="url(#linear-gradient)"/>
    </g>
  </g>
</svg>
