<svg width="112" height="61" viewBox="0 0 112 61" fill="none" xmlns="http://www.w3.org/2000/svg">
<path d="M1.32715 53.8818C2.65723 54.585 3.95801 54.9365 5.22949 54.9365C6.70605 54.9365 7.57031 54.4648 7.82227 53.5215C7.9043 53.2109 7.94531 52.8535 7.94531 52.4492V52.1064C7.94531 51.6963 7.91602 51.3652 7.85742 51.1133C7.79883 50.8613 7.67578 50.6562 7.48828 50.498C7.18359 50.2344 6.46289 50.0146 5.32617 49.8389C4.3125 49.6807 3.6123 49.5312 3.22559 49.3906C2.83887 49.25 2.51953 49.0977 2.26758 48.9336C2.02148 48.7637 1.81055 48.5527 1.63477 48.3008C1.27148 47.7734 1.08984 47.0439 1.08984 46.1123V46.0244C1.08984 44.0908 1.89258 42.9336 3.49805 42.5527C4.00781 42.4355 4.58496 42.377 5.22949 42.377H5.34375C6.84961 42.377 8.08008 42.5938 9.03516 43.0273L8.57812 44.3721C7.42383 43.874 6.36035 43.625 5.3877 43.625H5.30859C4.23633 43.625 3.49805 43.8271 3.09375 44.2314C2.75391 44.5713 2.58398 45.1602 2.58398 45.998V46.0332C2.58398 46.9883 2.84766 47.6152 3.375 47.9141C3.73242 48.1074 4.37109 48.2773 5.29102 48.4238C6.2168 48.5703 6.90527 48.6963 7.35645 48.8018C7.80762 48.9014 8.19141 49.0684 8.50781 49.3027C9.16406 49.7949 9.49219 50.7295 9.49219 52.1064V52.2207C9.49219 54.3242 8.64551 55.5781 6.95215 55.9824C6.43066 56.1113 5.93848 56.1758 5.47559 56.1758C5.0127 56.1758 4.59082 56.1582 4.20996 56.123C3.83496 56.0938 3.45117 56.0381 3.05859 55.9561C2.13867 55.7686 1.36816 55.4873 0.74707 55.1123L1.32715 53.8818ZM19.1493 56.1758C17.0633 56.1758 15.6864 55.5195 15.0184 54.207C14.6258 53.4453 14.3944 52.4287 14.3241 51.1572C14.2948 50.5596 14.2801 49.9092 14.2801 49.2061C14.2801 48.5029 14.3006 47.8379 14.3416 47.2109C14.3827 46.5781 14.4618 46.0068 14.5789 45.4971C14.702 44.9873 14.8719 44.5391 15.0887 44.1523C15.3114 43.7598 15.6014 43.4316 15.9588 43.168C16.6971 42.6406 17.7606 42.377 19.1493 42.377H19.6942C21.868 42.377 23.2596 42.9629 23.869 44.1348C24.2498 44.8672 24.4637 45.8867 24.5106 47.1934C24.534 47.832 24.5457 48.5088 24.5457 49.2236C24.5457 49.9326 24.5282 50.5889 24.493 51.1924C24.4579 51.79 24.3846 52.3438 24.2733 52.8535C24.162 53.3633 23.9979 53.8232 23.7811 54.2334C23.5702 54.6436 23.283 54.9922 22.9198 55.2793C22.1698 55.877 21.0946 56.1758 19.6942 56.1758H19.1493ZM19.6766 54.9102C20.3211 54.9102 20.8543 54.8398 21.2762 54.6992C21.7039 54.5586 22.0409 54.3125 22.287 53.9609C22.744 53.3105 22.9725 52.0625 22.9725 50.2168V49.2676C22.9725 48.3828 22.9491 47.5947 22.9022 46.9033C22.8553 46.2119 22.7293 45.6289 22.5243 45.1543C22.1024 44.1699 21.1883 43.6777 19.7821 43.6777H19.0438C17.6141 43.6777 16.7 44.1377 16.3016 45.0576C16.0496 45.6436 15.912 46.335 15.8885 47.1318C15.8651 47.9287 15.8534 48.6406 15.8534 49.2676V50.2168C15.8534 51.9453 16.1112 53.1641 16.6268 53.873C17.1248 54.5645 17.9657 54.9102 19.1493 54.9102H19.6766ZM30.3708 42.5527H38.0964V43.8535H31.8649V49.1357H37.2702V50.4277H31.8649V56H30.3708V42.5527ZM44.6245 43.8535H41.0386V42.5527H49.8277V43.8535H46.1187V56H44.6245V43.8535ZM52.392 42.5527H54.0091L56.6107 52.7129L57.0677 54.8574L57.5775 52.7129L60.2845 42.5527H62.0336L65.2591 54.9277L65.725 52.6777L68.2035 42.5527H69.7855L66.3402 56H64.1078L61.5326 46.3848L61.1371 44.1172L60.724 46.3848L58.0697 56H56.013L52.392 42.5527ZM77.052 42.5527H79.0998L83.802 56H82.2111L80.8752 52.0537H75.4611L74.1955 56H72.6486L77.052 42.5527ZM80.4533 50.7969L78.0803 43.7393L77.8078 44.7412L75.8654 50.7969H80.4533ZM88.4405 42.5967C90.3448 42.4502 91.9444 42.377 93.2393 42.377H93.4151C94.8272 42.377 95.8174 42.6934 96.3858 43.3262C96.8604 43.8711 97.0977 44.7617 97.0977 45.998C97.0977 47.5801 96.8721 48.7578 96.4209 49.5312C95.958 50.3164 95.1905 50.8086 94.1182 51.0078C94.3174 51.2539 94.5137 51.5117 94.7071 51.7812L95.2256 52.5283L97.5371 56H95.7793L93.7579 52.8184C93.1954 51.9629 92.7793 51.3975 92.5098 51.1221H92.4131C91.9971 51.1162 91.5957 51.1074 91.209 51.0957L89.9346 51.043V56H88.4405V42.5967ZM89.9346 49.8564C90.5498 49.8857 91.5166 49.9004 92.835 49.9004C93.919 49.9004 94.6573 49.5957 95.0498 48.9863C95.3838 48.4531 95.5508 47.5215 95.5508 46.1914C95.5508 45.0723 95.3018 44.3398 94.8037 43.9941C94.5108 43.7891 94.1885 43.6748 93.837 43.6514C93.4912 43.6279 93.1866 43.6162 92.9229 43.6162C92.6651 43.6162 92.4131 43.6191 92.167 43.625C91.9268 43.625 91.6866 43.6279 91.4463 43.6338C91.2061 43.6396 90.9629 43.6484 90.7168 43.6602L89.9346 43.7129V49.8564ZM102.606 42.5527H110.226V43.8535H104.1V48.4941H109.04V49.7861H104.1V54.708H110.464V56H102.606V42.5527Z" fill="white" fill-opacity="0.7"/>
<rect x="1" width="35" height="34.1463" fill="black"/>
<path d="M19.9658 17.0273C19.9658 17.8418 19.8604 18.6709 19.6494 19.5146C19.4443 20.3525 19.1543 21.1641 18.7793 21.9492C18.4102 22.7402 17.9648 23.4785 17.4434 24.1641C16.9219 24.8496 16.3477 25.4473 15.7207 25.957L14.3672 25.1396C14.7188 24.6592 15.0264 24.1143 15.29 23.5049C15.5537 22.8955 15.7734 22.2627 15.9492 21.6064C16.125 20.9502 16.2568 20.291 16.3447 19.6289C16.4326 18.9668 16.4766 18.3369 16.4766 17.7393V8.34375H19.9658V17.0273Z" fill="white"/>
<rect x="39" width="35" height="34.1463" fill="black"/>
<path d="M54.9219 22H51.4326V9.34375H58.2705C58.8623 9.34375 59.4277 9.42285 59.9668 9.58105C60.5117 9.73926 60.9922 9.97949 61.4082 10.3018C61.8242 10.6182 62.1553 11.0195 62.4014 11.5059C62.6533 11.9863 62.7793 12.5518 62.7793 13.2021C62.7793 13.6123 62.7207 13.999 62.6035 14.3623C62.4863 14.7197 62.3223 15.0479 62.1113 15.3467C61.9062 15.6455 61.6631 15.915 61.3818 16.1553C61.1006 16.3955 60.793 16.5977 60.459 16.7617C60.125 16.9258 59.7705 17.0518 59.3955 17.1396C59.0264 17.2275 58.6514 17.2715 58.2705 17.2715H54.9219V22ZM59.2461 13.2021C59.2461 12.3877 59.0381 11.749 58.6221 11.2861C58.2119 10.8174 57.5908 10.583 56.7588 10.583H54.9219V16.0762H56.7588C57.2041 16.0762 57.582 16.0059 57.8926 15.8652C58.209 15.7188 58.4668 15.5166 58.666 15.2588C58.8652 15.001 59.0117 14.6992 59.1055 14.3535C59.1992 14.002 59.2461 13.6182 59.2461 13.2021Z" fill="white"/>
<rect x="77" width="35" height="34.1463" fill="black"/>
<path d="M89.9551 12.5605L88.9707 22H86.8174L88.9707 9.34375H92.1611L95.123 19.0029L98.1201 9.34375H101.311L103.104 22H99.5527L98.5068 12.8066L96.0371 22H92.8467L89.9551 12.5605Z" fill="white"/>
</svg>
