<svg xmlns="http://www.w3.org/2000/svg" width="385.798" height="87.865" viewBox="0 0 385.798 87.865">
  <g id="MySQL-Logo.wine" transform="translate(0 -113.44)">
    <path id="Path_1" data-name="Path 1" d="M0,183.354H12.842V132.643l19.88,44.208c2.346,5.35,5.557,7.244,11.854,7.244s9.385-1.893,11.732-7.244l19.88-44.208v50.71H89.03V132.726c0-4.94-1.976-7.327-6.05-8.561-9.755-3.046-16.3-.412-19.264,6.174l-19.51,43.63-18.892-43.63c-2.84-6.586-9.508-9.22-19.263-6.174C1.976,125.4,0,127.787,0,132.725Zm99.708-41.276h12.838v27.938c-.12,1.518.487,5.08,7.522,5.19,3.589.057,27.7,0,27.925,0V141.942h12.868c.059,0-.013,45.364-.012,45.557.07,11.188-13.882,13.618-20.313,13.806H99.986v-8.64c.072,0,40.52.009,40.622,0,8.265-.873,7.289-4.981,7.288-6.364v-3.368H120.6c-12.7-.117-20.786-5.66-20.886-12.035-.01-.591.274-28.54-.007-28.82Z" fill="#fff"/>
    <path id="Path_2" data-name="Path 2" d="M170.758,183.354h36.92a28.48,28.48,0,0,0,11.855-2.47c5.556-2.551,8.273-6.008,8.273-10.537v-9.384c0-3.705-3.087-7.163-9.138-9.467a31.565,31.565,0,0,0-10.99-1.894h-15.56c-5.184,0-7.654-1.564-8.271-5.021a3.662,3.662,0,0,1-.124-1.153v-5.844a3.41,3.41,0,0,1,.124-1.071c.617-2.634,1.976-3.376,6.544-3.787.37,0,.864-.083,1.235-.083H228.3v-8.56H192.243c-5.186,0-7.9.329-10.372,1.069-7.656,2.388-10.99,6.175-10.99,12.76V145.4c0,5.763,6.545,10.7,17.534,11.854,1.236.082,2.47.164,3.7.164h13.336a6.817,6.817,0,0,1,1.359.083c4.075.33,5.8,1.07,7.039,2.552a3.062,3.062,0,0,1,.987,2.3v7.49a4.287,4.287,0,0,1-1.851,3.047,9.108,9.108,0,0,1-5.434,1.812c-.494,0-.864.082-1.358.082h-35.44v8.56Zm137.16-14.9c0,8.808,6.544,13.748,19.757,14.736,1.234.082,2.47.164,3.7.164h33.464v-8.561H331.132c-7.532,0-10.372-1.894-10.372-6.421v-44.29H307.918v44.372ZM236,168.9V138.38c0-7.754,5.445-12.457,16.209-13.942a24.63,24.63,0,0,1,3.465-.247H280.05a26.4,26.4,0,0,1,3.589.247c10.765,1.485,16.209,6.188,16.209,13.942V168.9c0,6.29-2.312,9.658-7.641,11.852l12.65,11.418H289.948l-10.234-9.238-10.3.653H255.676a28.465,28.465,0,0,1-7.548-1.073C239.962,180.287,236,176,236,168.9Zm13.86-.742a5.634,5.634,0,0,0,.248,1.32c.742,3.547,4.083,5.527,9.156,5.527h11.667l-10.717-9.675h14.91l9.348,8.438a6.084,6.084,0,0,0,3.252-4.125,4.232,4.232,0,0,0,.123-1.237V139.124a3.977,3.977,0,0,0-.123-1.156c-.743-3.3-4.084-5.2-9.033-5.2H259.266c-5.691,0-9.4,2.475-9.4,6.352v29.037Z" fill="#fff"/>
    <path id="Path_5" data-name="Path 5" d="M370.87,174.549a9.464,9.464,0,1,0,9.464-9.463,9.338,9.338,0,0,0-9.464,9.463Zm16.809,0a7.322,7.322,0,1,1-2.088-5.3,7.346,7.346,0,0,1,2.088,5.3Zm-4.794,5.4H385l-3.1-4.743c1.665-.177,2.926-.985,2.926-2.953,0-2.2-1.387-3.1-4.062-3.1H376.55v10.8h1.817v-4.668h1.69l2.828,4.669Zm-4.518-6.182v-3.1h2.094c1.086,0,2.4.2,2.4,1.464,0,1.513-1.186,1.64-2.55,1.64h-1.942Z" transform="translate(-4 -51.645)" fill="none" fill-rule="evenodd"/>
  </g>
</svg>
