<svg xmlns="http://www.w3.org/2000/svg" xmlns:xlink="http://www.w3.org/1999/xlink" width="583.539" height="170.375" viewBox="0 0 583.539 170.375">
  <defs>
    <clipPath id="clip-path">
      <path id="Path_6" data-name="Path 6" d="M239.03,226.6,196.9,250.922a5.085,5.085,0,0,0-2.546,4.406V304A5.084,5.084,0,0,0,196.9,308.4l42.133,24.336a5.1,5.1,0,0,0,5.09,0L286.249,308.4a5.1,5.1,0,0,0,2.54-4.406V255.328a5.085,5.085,0,0,0-2.55-4.406L244.119,226.6a5.121,5.121,0,0,0-5.1,0" fill="#fff"/>
    </clipPath>
    <clipPath id="clip-path-2">
      <path id="Path_10" data-name="Path 10" d="M241.066,225.953a5.139,5.139,0,0,0-2.035.652l-42.01,24.247,45.3,82.51a5.052,5.052,0,0,0,1.81-.624l42.13-24.336a5.105,5.105,0,0,0,2.46-3.476l-46.18-78.89a5.29,5.29,0,0,0-1.03-.1c-.14,0-.28.007-.42.02" fill="#fff"/>
    </clipPath>
  </defs>
  <g id="Node.js_logo" transform="translate(0 0)">
    <g id="Group_4" data-name="Group 4" transform="translate(295 -101.584)">
      <path id="Path_1" data-name="Path 1" d="M218.647,270.93a8.409,8.409,0,0,1-4.19-1.12l-13.337-7.9c-1.992-1.114-1.02-1.508-.363-1.735a26.927,26.927,0,0,0,6.03-2.75,1.012,1.012,0,0,1,.993.07l10.246,6.08a1.352,1.352,0,0,0,1.238,0l39.95-23.06a1.26,1.26,0,0,0,.61-1.08v-46.1a1.283,1.283,0,0,0-.618-1.1L219.272,169.2a1.229,1.229,0,0,0-1.23,0l-39.926,23.04a1.273,1.273,0,0,0-.633,1.09v46.1a1.231,1.231,0,0,0,.62,1.07l10.94,6.32c5.94,2.97,9.57-.53,9.57-4.05v-45.5a1.14,1.14,0,0,1,1.16-1.15h5.06a1.144,1.144,0,0,1,1.15,1.15v45.52c0,7.92-4.32,12.47-11.83,12.47-2.31,0-4.13,0-9.21-2.5l-10.48-6.04a8.447,8.447,0,0,1-4.19-7.29v-46.1a8.4,8.4,0,0,1,4.19-7.28l39.99-23.07a8.76,8.76,0,0,1,8.4,0l39.94,23.08a8.428,8.428,0,0,1,4.19,7.28v46.1a8.452,8.452,0,0,1-4.19,7.28l-39.94,23.07a8.4,8.4,0,0,1-4.21,1.12" fill="#fff"/>
      <path id="Path_2" data-name="Path 2" d="M230.987,239.164c-17.48,0-21.145-8.024-21.145-14.754A1.149,1.149,0,0,1,211,223.26h5.16a1.155,1.155,0,0,1,1.14.978c.78,5.258,3.1,7.91,13.67,7.91,8.42,0,12-1.9,12-6.367,0-2.57-1.02-4.48-14.1-5.76-10.94-1.08-17.7-3.49-17.7-12.24,0-8.06,6.8-12.86,18.19-12.86,12.79,0,19.13,4.44,19.93,13.98a1.164,1.164,0,0,1-.31.89,1.189,1.189,0,0,1-.85.37h-5.19a1.146,1.146,0,0,1-1.12-.9c-1.25-5.53-4.27-7.3-12.48-7.3-9.19,0-10.26,3.2-10.26,5.6,0,2.91,1.26,3.76,13.66,5.4,12.28,1.63,18.11,3.93,18.11,12.56,0,8.7-7.26,13.69-19.92,13.69m48.66-48.89h1.34a1.164,1.164,0,0,0,1.31-1.22c0-1.18-.81-1.18-1.26-1.18H279.6Zm-1.63-3.78h2.97c1.02,0,3.02,0,3.02,2.28a1.985,1.985,0,0,1-1.63,2.12c1.19.08,1.27.86,1.43,1.96a8.43,8.43,0,0,0,.45,2.28h-1.83c-.05-.4-.33-2.6-.33-2.72-.12-.49-.29-.73-.9-.73h-1.51v3.46h-1.67Zm-3.57,4.3a4.55,4.55,0,1,0-.01-.01m14.16.03a7.7,7.7,0,1,0-.01,0" fill="#fff"/>
    </g>
    <path id="Path_3" data-name="Path 3" d="M94.936,90.55a5.115,5.115,0,0,0-2.558-4.445L50.022,61.735a4.946,4.946,0,0,0-2.328-.67h-.438a5.032,5.032,0,0,0-2.34.67L2.562,86.105A5.154,5.154,0,0,0,0,90.555L.093,156.2a2.52,2.52,0,0,0,1.27,2.21,2.42,2.42,0,0,0,2.54,0l25.18-14.42a5.164,5.164,0,0,0,2.56-4.44V108.88a5.1,5.1,0,0,1,2.555-4.43l10.72-6.174a5.086,5.086,0,0,1,2.56-.688,5,5,0,0,1,2.544.687l10.715,6.172a5.1,5.1,0,0,1,2.56,4.43V139.54a5.181,5.181,0,0,0,2.565,4.44l25.164,14.41a2.5,2.5,0,0,0,2.56,0,2.568,2.568,0,0,0,1.268-2.21ZM294.8,124.726a1.271,1.271,0,0,1-.64,1.106l-14.548,8.386a1.282,1.282,0,0,1-1.277,0l-14.55-8.386a1.267,1.267,0,0,1-.64-1.106v-16.8a1.287,1.287,0,0,1,.63-1.11l14.54-8.4a1.292,1.292,0,0,1,1.29,0l14.55,8.4a1.275,1.275,0,0,1,.64,1.11Zm3.93-124.4a2.558,2.558,0,0,0-3.806,2.237v65a1.789,1.789,0,0,1-2.684,1.55L281.634,63a5.108,5.108,0,0,0-5.112,0l-42.37,24.453a5.105,5.105,0,0,0-2.56,4.42v48.92a5.121,5.121,0,0,0,2.56,4.43l42.37,24.47a5.137,5.137,0,0,0,5.117,0l42.37-24.48a5.128,5.128,0,0,0,2.56-4.43V18.863a5.128,5.128,0,0,0-2.63-4.47ZM439.827,107.488a5.116,5.116,0,0,0,2.543-4.422V91.21a5.119,5.119,0,0,0-2.547-4.425l-42.1-24.44a5.113,5.113,0,0,0-5.13,0l-42.36,24.45a5.107,5.107,0,0,0-2.56,4.43v48.9a5.133,5.133,0,0,0,2.58,4.45l42.09,23.99a5.1,5.1,0,0,0,5.02.03l25.46-14.15a2.554,2.554,0,0,0,.02-4.45l-42.62-24.46a2.538,2.538,0,0,1-1.29-2.21v-15.34a2.539,2.539,0,0,1,1.28-2.216l13.26-7.65a2.528,2.528,0,0,1,2.55,0l13.27,7.65a2.55,2.55,0,0,1,1.28,2.21v12.06a2.551,2.551,0,0,0,3.84,2.21Zm0,0" fill="#fff" fill-rule="evenodd"/>
    <path id="Path_4" data-name="Path 4" d="M394.538,105.2a.971.971,0,0,1,.98,0l8.13,4.69a.982.982,0,0,1,.49.85v9.39a.982.982,0,0,1-.49.85l-8.13,4.69a.971.971,0,0,1-.98,0l-8.125-4.69a.979.979,0,0,1-.5-.85v-9.39a.969.969,0,0,1,.49-.85Zm0,0" fill="#fff" fill-rule="evenodd"/>
    <g id="Group_1" data-name="Group 1" transform="translate(-78.306 -164.016)" clip-path="url(#clip-path)">
      <path id="Path_5" data-name="Path 5" d="M331.363,246.793,212.648,188.6l-60.87,124.174L270.49,370.97Zm0,0" fill="#fff"/>
    </g>
    <g id="Group_3" data-name="Group 3" transform="translate(-78.306 -164.016)" clip-path="url(#clip-path-2)">
      <path id="Path_9" data-name="Path 9" d="M197.02,225.934v107.43H288.7V225.934Zm0,0" fill="#fff"/>
    </g>
  </g>
</svg>
