<svg xmlns="http://www.w3.org/2000/svg" width="863.802" height="638.125" viewBox="0 0 863.802 638.125">
  <g id="_597150096" transform="translate(0 0)">
    <path id="Path_1" data-name="Path 1" d="M981.649,632h419.333a10.821,10.821,0,0,1,10.819,10.819V1136.9a10.821,10.821,0,0,1-10.819,10.819H1014.108v85.79h158.466l10.492,19.344v7.541h-.874l-1.421,9.726H779.032l-1.421-9.726h-.874v-7.541l10.492-19.344H945.694v-85.79H558.819A10.821,10.821,0,0,1,548,1136.9V642.819A10.821,10.821,0,0,1,558.819,632Z" transform="translate(-548 -632)" fill="#1a1a1a" fill-rule="evenodd"/>
    <path id="Path_2" data-name="Path 2" d="M994.152,648h420.972a9.1,9.1,0,0,1,9.18,9.18v493.866a9.165,9.165,0,0,1-9.18,9.18H573.18a9.165,9.165,0,0,1-9.18-9.18V657.18a9.1,9.1,0,0,1,9.18-9.18Z" transform="translate(-562.251 -646.251)" fill="#252525" fill-rule="evenodd"/>
    <path id="Path_3" data-name="Path 3" d="M2087.057,648H2508.03a9.1,9.1,0,0,1,9.18,9.18v493.866a9.165,9.165,0,0,1-9.18,9.18H2274.375L1791,648Z" transform="translate(-1655.157 -646.251)" fill="#2e2828" fill-rule="evenodd"/>
    <path id="Path_4" data-name="Path 4" d="M976.4,635.388H558.819a7.463,7.463,0,0,0-7.431,7.431V1136.9a7.465,7.465,0,0,0,7.431,7.322H976.4v-26.775h3.5v30.272H558.819A10.821,10.821,0,0,1,548,1136.9V642.819A10.821,10.821,0,0,1,558.819,632H979.9v3.388Z" transform="translate(-548 -632)" fill="#d6d3d3"/>
    <path id="Path_5" data-name="Path 5" d="M4503.5,635.388h417.584a7.462,7.462,0,0,1,7.432,7.431V1136.9a7.465,7.465,0,0,1-7.432,7.322H4503.5v-26.775H4500v30.272h421.081a10.821,10.821,0,0,0,10.82-10.819V642.819A10.821,10.821,0,0,0,4921.081,632H4500v3.388Z" transform="translate(-4068.099 -632)" fill="silver"/>
    <path id="Path_6" data-name="Path 6" d="M2844.164,6136H2651.491L2641,6155.344h203.164Z" transform="translate(-2412.263 -5534.486)" fill="#b3b3b3" fill-rule="evenodd"/>
    <path id="Path_7" data-name="Path 7" d="M4500,6136h192.672l10.492,19.344H4500Z" transform="translate(-4068.099 -5534.486)" fill="#a8a8a8" fill-rule="evenodd"/>
    <rect id="Rectangle_2" data-name="Rectangle 2" width="203.164" height="7.504" transform="translate(228.737 620.857)" fill="#dbdbdb"/>
    <rect id="Rectangle_3" data-name="Rectangle 3" width="203.164" height="7.504" transform="translate(431.901 620.857)" fill="#c5c5c5"/>
    <path id="Path_8" data-name="Path 8" d="M2649,6382h202.29v9.727H2650.421Z" transform="translate(-2419.389 -5753.602)" fill="#1f1f1f" fill-rule="evenodd"/>
    <path id="Path_9" data-name="Path 9" d="M4702.29,6382H4500v9.727h200.869Z" transform="translate(-4068.099 -5753.602)" fill="#161616" fill-rule="evenodd"/>
    <rect id="Rectangle_4" data-name="Rectangle 4" width="34" height="13" transform="translate(398.111 607.931)" fill="#383737"/>
    <rect id="Rectangle_5" data-name="Rectangle 5" width="34" height="13" transform="translate(432.111 607.931)" fill="#2b2b2b"/>
    <path id="Path_10" data-name="Path 10" d="M564,5074v19.453a9.048,9.048,0,0,0,9.071,9.071H992.4V5074Z" transform="translate(-562.251 -4588.549)" fill="#d6d3d3" fill-rule="evenodd"/>
    <path id="Path_11" data-name="Path 11" d="M4944.4,5074v19.453a9.048,9.048,0,0,1-9.071,9.071H4516V5074Z" transform="translate(-4082.351 -4588.549)" fill="silver" fill-rule="evenodd"/>
    <rect id="Rectangle_6" data-name="Rectangle 6" width="34" height="92" transform="translate(398.111 515.931)" fill="#1c1c1c"/>
    <rect id="Rectangle_7" data-name="Rectangle 7" width="34" height="92" transform="translate(432.111 515.931)" fill="#090909"/>
    <rect id="Rectangle_8" data-name="Rectangle 8" width="68" height="22" transform="translate(398.111 521.931)" fill="none"/>
    <path id="Path_12" data-name="Path 12" d="M4304.375,5178.634c-.109.438-.655.438-1.093.438-.218,0-.218,0-.328-.109s-.109-.109-.109-.328a2.254,2.254,0,0,1,.219-.655c.109,0,.109-.109.218-.219,0-.109.109-.109.219-.219s.219-.328.437-.109C4304.047,5177.65,4304.594,5178.2,4304.375,5178.634Zm3.279-1.421c.109,0,.437.438.437.547C4307.982,5177.76,4307.544,5177.432,4307.654,5177.213Zm20.874.766.109-.109v.218Zm-.219-.984c-.109-.109,0-.437.109-.546A.82.82,0,0,1,4328.309,5176.994Zm-4.372-.983a.838.838,0,0,1-.218.547c0,.109-.547,1.2-.875.874S4323.609,5176.12,4323.938,5176.011Zm7.1.219c.219,0,.219,0,.328.109.219,0,.219-.109.328,0,0,.109-.109.655-.109.765A2.377,2.377,0,0,1,4331.041,5176.229Zm-26.775.656a5.355,5.355,0,0,1,2.623-.875c.328,0,.219-.109.765-.109.656.109,1.749.219,1.967.984a.7.7,0,0,1,0,.656,1.151,1.151,0,0,1-.219.546c-.546.328-.546-.984-1.42-1.53-.219-.109-.656-.437-.984-.109a1.185,1.185,0,0,0,0,1.2,1.831,1.831,0,0,0,1.2.983c.219.109.328.109.438.219a1.5,1.5,0,0,0,.328.437c.218.219.218.328.546.328.109-.109.219-.328.328-.437.109-.218.109-.328.438-.328a.984.984,0,0,0,.546-.109,1.183,1.183,0,0,0,.656-.109c.546-.219.437-.328.765-.655.219.328.109,1.2.765.983.328,0,.219-.437.219-.656a4.537,4.537,0,0,1,.218-1.64c.109-.109.219-.328.438-.546.218-.328.983-.546,1.2-.109.109.219-.109.438-.219.656-.109.11-.328.656-.437.765a1.194,1.194,0,0,0,.546,1.421,2.122,2.122,0,0,0,1.639.219,2.87,2.87,0,0,0,.984-.547c0-.109.109-.328.218-.328.109.219.219,1.53.765,1.312.109,0,.219-.109.328-.219.109-.328-.109-.437-.109-.656a4.479,4.479,0,0,1-.109-1.2v-.437c0-.328.109-.874.109-1.093.218-.546,1.2-.437,1.42.219,0,.219,0,.328-.109.438a.829.829,0,0,1-.218.328c-.109.109,0,.109-.219.437a1.568,1.568,0,0,0-.546,1.2s.109.328.219.328c.656.765,2.295.328,3.06,0,.11,0,.656-.328.765-.328a1.294,1.294,0,0,0,.109.875c.219.218.219.328.438.546a2,2,0,0,0,1.748.328,3.273,3.273,0,0,0,1.093-.437c.109-.109.218-.109.328-.219.219-.109,1.093-.983,1.2-.983s.219.219.328.328c.219.109.328.218.547.218.109.109.328,0,.437-.109.328-.328-.109-1.312-.109-1.749a1.385,1.385,0,0,1-.109-.656c0-.109.109-.437.109-.546h.765c.218,0,.328.219.328.438.219.328.438.765.656,1.093a5.119,5.119,0,0,1,.656.983,1.452,1.452,0,0,0,.328.546c.109.219.218.219.546.109.109-.109.218-.437.109-.546-.109-.437-.437-.437-.437-1.2.109-.109,0-.219.109-.437v-.327c.109-.437.437-.984-.109-1.2-.109-.218-.437-.109-.655-.109s-.656,0-.765-.109a.688.688,0,0,1,0-.656c0-.218.218-.328.328-.546.219-.109,1.093-.328,1.312-.437a25,25,0,0,1,2.841-.328,16.413,16.413,0,0,1,3.279,0c.328.109.218.218.546.328.218,0,.546-.109.765-.109a.515.515,0,0,0,.656-.109.689.689,0,0,0,0-.655c-.219-.328-.437-.219-.656-.109l-3.716-.109h-.328a8.264,8.264,0,0,0-1.639.109,5.834,5.834,0,0,0-2.732.546.4.4,0,0,0-.328.109,3.3,3.3,0,0,0-.765.546,1.9,1.9,0,0,0-.328,1.312c-.109.109-.546,0-.765,0-.109-.109-.328-.328-.437-.219-.109,0-.328.328-.437.438s-.218.109-.328.328a1.775,1.775,0,0,0-.546.984v.765c.109.219.219.328,0,.546a4.835,4.835,0,0,1-1.639,1.312,5.343,5.343,0,0,1-1.312.109c-.328-.109-.218,0-.437-.219s-.328-.437-.219-.656a2.058,2.058,0,0,1,.875-.219h.437a1.552,1.552,0,0,0,.218-.328c.109-.328-.218-.546-.546-.546-.109,0-.874.109-.983.109a3.248,3.248,0,0,1,.438-.874,3.372,3.372,0,0,0,.328-1.421c0-.328-.328-.437-.656-.328-.109,0-.328.219-.437.219-.546.437-.765.437-1.2,1.2a1.647,1.647,0,0,0-.437.874c-.109.328.328.656.328.765a1.571,1.571,0,0,1-.437.219,1.392,1.392,0,0,1-.656.109,2.233,2.233,0,0,1-1.2,0c-.219-.765,1.639-1.53.656-2.95a1.5,1.5,0,0,0-1.421-.656,2.572,2.572,0,0,0-.875.219c-.109.109-.109.656-.218.765-.109-.109-.219-.437-.656-.219s.218,1.312-.328,2.3a1.811,1.811,0,0,1-1.311.546c-.547-.109-.984-.437-.547-1.093a3.365,3.365,0,0,0,.547-1.312.778.778,0,0,0-.328-.655.6.6,0,0,0-.546-.328c-.765-.328-1.421.219-1.858.874-.109.109-.219.547-.328.656-.109-.109-.219-.875-.656-.656-.437.109-.219.656-.328.984a1.067,1.067,0,0,1-.437.984c-.219.109-.984.327-1.093.218-.109-.328.219-1.093,0-1.639a2.58,2.58,0,0,0-.984-.875,6.038,6.038,0,0,0-4.371.109l-.656.328c-.546.219-.546.547-1.093-.109a12.446,12.446,0,0,1-1.749-.983c0-.109.656-.437.765-.546.219-.109.438-.328.656-.437a13.088,13.088,0,0,0,1.2-1.312c.656-.983,1.312-2.514.219-3.5a4.872,4.872,0,0,0-3.935-.546c-4.48.875-4.917,5.9-3.606,9.508a3.8,3.8,0,0,0,.765,1.639c.219.219.656.328.546-.109a1.619,1.619,0,0,1-.546-.765c-.875-2.295-1.421-5.574,0-7.759a4.532,4.532,0,0,1,2.841-1.858c1.093-.219,3.169-.328,3.825.765.437.983-.765,2.514-1.421,3.169-.437.328-.983.656-1.421.984-.218.109-.655.218-.765.437-.328.328-.219.546.109.765a11.913,11.913,0,0,0,1.2.655,12.063,12.063,0,0,1,1.2.656c.109.219.109.219-.109.328a5.8,5.8,0,0,0-.656,1.093,1.292,1.292,0,0,0-.109,1.093,1.608,1.608,0,0,0,.656.546,1.851,1.851,0,0,0,1.093,0,1.292,1.292,0,0,0,1.2-1.2A4.364,4.364,0,0,0,4304.266,5176.885Z" transform="translate(-3886.463 -4672.637)" fill="#c9c3c3" fill-rule="evenodd"/>
    <path id="Path_13" data-name="Path 13" d="M4500,5213.885v-4.48a2.572,2.572,0,0,1,.874-.219,1.5,1.5,0,0,1,1.421.655c.983,1.421-.874,2.186-.656,2.951a2.235,2.235,0,0,0,1.2,0,1.385,1.385,0,0,0,.655-.109,1.551,1.551,0,0,0,.437-.219c0-.109-.437-.437-.328-.765a1.644,1.644,0,0,1,.438-.875c.437-.765.655-.765,1.2-1.2.109,0,.328-.218.437-.218.328-.109.656,0,.656.328.109.218-.328,1.2-.328,1.42a3.279,3.279,0,0,0-.437.875c.109,0,.875-.109.984-.109.327,0,.655.218.546.546a1.573,1.573,0,0,1-.219.328h-.437a2.067,2.067,0,0,0-.875.218c-.109.219,0,.438.219.656s.109.109.438.219a5.317,5.317,0,0,0,1.312-.109,4.833,4.833,0,0,0,1.639-1.312c.219-.218.109-.328,0-.546v-.766a1.775,1.775,0,0,1,.547-.983c.109-.219.219-.219.328-.328s.328-.437.437-.437c.109-.109.328.109.438.218.219,0,.656.109.765,0a1.9,1.9,0,0,1,.328-1.312,3.342,3.342,0,0,1,.765-.546.4.4,0,0,1,.328-.109,5.837,5.837,0,0,1,2.732-.546,8.261,8.261,0,0,1,1.639-.109h.328l3.716.109c.219-.109.438-.219.656.109a.687.687,0,0,1,0,.656.515.515,0,0,1-.656.109c-.218,0-.546.109-.765.109-.328-.109-.219-.219-.547-.328a16.408,16.408,0,0,0-3.278,0,25.126,25.126,0,0,0-2.842.328c-.218.109-1.093.328-1.312.437-.109.218-.328.328-.328.546a.69.69,0,0,0,0,.656c.109.109.546.109.765.109s.547-.109.656.109c.546.219.218.766.109,1.2v.328c-.109.219,0,.328-.109.438,0,.765.328.765.437,1.2.109.109,0,.437-.109.546-.328.109-.437.109-.546-.109a1.453,1.453,0,0,1-.328-.546,5.15,5.15,0,0,0-.656-.983c-.219-.328-.437-.765-.656-1.093,0-.218-.109-.437-.328-.437h-.765c0,.109-.109.437-.109.546a1.387,1.387,0,0,0,.109.656c0,.437.437,1.421.109,1.749-.109.109-.328.218-.437.109-.218,0-.328-.109-.546-.219-.109-.109-.219-.328-.328-.328s-.983.875-1.2.984c-.109.109-.219.109-.328.219a3.28,3.28,0,0,1-1.093.437,2,2,0,0,1-1.749-.328c-.218-.219-.218-.328-.437-.547a1.293,1.293,0,0,1-.109-.874c-.109,0-.656.328-.765.328-.766.328-2.4.765-3.061,0-.109,0-.219-.328-.219-.328a1.564,1.564,0,0,1,.547-1.2c.219-.328.109-.328.219-.437a.848.848,0,0,0,.218-.328c.109-.109.109-.218.109-.437-.219-.656-1.2-.765-1.421-.219,0,.219-.109.765-.109,1.093v.437a4.5,4.5,0,0,0,.109,1.2c0,.219.219.328.109.656-.109.109-.218.219-.327.219C4500.109,5213.994,4500.109,5213.994,4500,5213.885Zm10.164-1.53.109-.109v.218Zm-.218-.983c-.109-.109,0-.437.109-.546A.819.819,0,0,1,4509.945,5211.371Zm-4.372-.983a.834.834,0,0,1-.218.546c0,.109-.546,1.2-.875.874S4505.246,5210.5,4505.573,5210.388Zm7.1.219c.218,0,.218,0,.328.109.219,0,.219-.109.328,0,0,.109-.109.655-.109.765A2.381,2.381,0,0,1,4512.677,5210.606Z" transform="translate(-4068.099 -4707.014)" fill="#bab4b4" fill-rule="evenodd"/>
  </g>
</svg>
